<?xml version="1.0" standalone="no"?>
<!DOCTYPE svg PUBLIC "-//W3C//DTD SVG 20010904//EN"
 "http://www.w3.org/TR/2001/REC-SVG-20010904/DTD/svg10.dtd">
<svg version="1.0" xmlns="http://www.w3.org/2000/svg"
 width="700.000000pt" height="700.000000pt" viewBox="0 0 700.000000 700.000000"
 preserveAspectRatio="xMidYMid meet">
<metadata>
Created by potrace 1.11, written by Peter Selinger 2001-2013
</metadata>
<g transform="translate(0.000000,700.000000) scale(0.100000,-0.100000)"
fill="#000000" stroke="none">
<path d="M4149 6996 c-2 -2 -49 -7 -104 -11 -55 -3 -113 -8 -130 -10 -16 -2
-66 -6 -109 -10 -43 -4 -86 -8 -95 -10 -9 -1 -50 -6 -91 -10 -41 -4 -82 -9
-90 -10 -8 -1 -40 -6 -70 -10 -30 -4 -64 -9 -75 -11 -10 -2 -37 -6 -60 -9 -22
-3 -62 -10 -90 -15 -27 -5 -99 -12 -160 -15 -60 -3 -119 -8 -130 -10 -11 -2
-45 -7 -76 -10 -31 -3 -67 -8 -80 -10 -13 -3 -44 -8 -69 -11 -25 -3 -61 -9
-80 -14 -19 -5 -53 -12 -75 -15 -22 -4 -67 -13 -100 -22 -33 -8 -70 -17 -82
-19 -12 -2 -33 -8 -45 -13 -13 -5 -27 -9 -33 -10 -84 -13 -404 -128 -555 -201
-118 -57 -134 -65 -220 -114 -219 -126 -352 -227 -530 -406 -146 -146 -186
-190 -296 -325 -279 -345 -465 -689 -578 -1065 -29 -97 -71 -301 -83 -405 -16
-139 -8 -555 12 -635 2 -8 7 -35 10 -60 16 -115 114 -464 159 -565 8 -16 29
-66 47 -109 153 -372 448 -820 817 -1239 57 -64 102 -121 100 -126 -2 -5 -55
-64 -118 -132 -63 -67 -128 -137 -145 -155 -16 -17 -79 -85 -140 -150 -60 -64
-144 -154 -185 -198 -41 -44 -110 -116 -152 -161 -43 -44 -78 -87 -78 -95 0
-8 52 -66 114 -128 l114 -113 445 445 c245 245 449 446 454 446 5 0 27 -17 49
-38 117 -113 373 -327 552 -460 122 -91 401 -278 431 -290 9 -3 39 -20 66 -38
92 -58 333 -176 480 -234 136 -54 383 -128 485 -145 19 -3 49 -8 65 -11 205
-36 535 -40 735 -9 497 78 918 282 1330 644 160 141 372 365 487 516 261 340
470 815 614 1399 28 111 72 317 84 391 3 17 12 66 20 110 15 87 21 124 30 200
4 28 8 57 10 65 2 8 7 42 10 75 4 33 8 71 10 85 4 24 14 108 21 175 16 150 19
350 19 1305 0 958 -4 1206 -20 1335 -2 17 -6 73 -10 125 -3 53 -7 107 -10 120
-2 13 -7 87 -11 164 -4 78 -7 142 -8 142 0 1 -54 4 -119 8 -66 3 -122 8 -125
10 -4 2 -42 7 -84 11 -43 3 -92 8 -110 10 -72 9 -127 15 -203 21 -44 3 -87 7
-95 9 -13 2 -63 7 -230 20 -25 2 -88 7 -140 10 -52 3 -113 9 -135 12 -45 6
-1540 15 -1546 9z m1281 -309 c77 -5 166 -10 380 -22 124 -6 327 -15 459 -20
68 -2 125 -6 126 -7 1 -2 -535 -540 -1192 -1196 -1146 -1146 -1194 -1192
-1203 -1167 -5 14 -12 36 -14 49 -2 12 -27 105 -56 207 -29 101 -61 216 -71
254 -10 39 -28 104 -39 145 -51 185 -192 729 -224 860 -98 407 -132 553 -142
618 -3 20 -7 39 -9 42 -2 3 -6 24 -9 46 -7 44 -13 75 -22 117 -4 19 -1 27 8
28 7 0 20 2 28 3 62 12 318 33 510 41 68 3 126 7 128 9 5 5 1244 -2 1342 -7z
m-2374 -123 c3 -55 86 -413 184 -799 99 -388 101 -396 105 -415 2 -8 10 -40
19 -70 22 -81 19 -68 116 -445 50 -192 115 -447 146 -565 31 -118 58 -225 60
-237 2 -12 9 -34 14 -48 6 -15 10 -28 10 -30 0 -5 -35 -39 -225 -220 -93 -88
-185 -176 -205 -195 -266 -254 -402 -384 -435 -415 -22 -20 -116 -110 -209
-198 -92 -89 -171 -163 -175 -165 -10 -3 -1 -35 -262 922 -125 463 -233 857
-239 876 -19 66 -391 1435 -397 1461 -4 23 4 31 94 88 211 132 461 239 763
325 163 46 606 147 625 142 6 -2 10 -7 11 -12z m3590 -281 c2 -26 6 -68 8 -93
3 -25 8 -88 11 -140 3 -52 8 -122 10 -155 27 -425 27 -1426 0 -1745 -2 -25 -6
-81 -10 -125 -3 -44 -8 -100 -10 -125 -2 -25 -7 -83 -10 -130 -3 -47 -8 -96
-10 -110 -3 -23 -14 -121 -20 -180 -8 -77 -33 -241 -37 -245 -2 -1 -37 8 -78
21 -41 13 -163 50 -270 83 -107 33 -224 69 -260 80 -36 11 -126 39 -200 62
-172 52 -374 114 -470 144 -41 13 -156 48 -255 78 -248 76 -767 236 -783 242
-8 3 483 501 1180 1198 656 657 1195 1192 1197 1191 2 -2 5 -25 7 -51z m-5316
-813 c39 -146 73 -272 75 -280 1 -8 10 -42 19 -75 9 -33 32 -116 50 -185 18
-69 55 -204 81 -300 51 -190 66 -247 143 -535 28 -104 117 -435 197 -735 80
-300 148 -552 150 -560 2 -8 17 -64 33 -125 27 -100 41 -153 48 -180 1 -5 8
-31 15 -56 l12 -46 -328 -328 -327 -328 -62 64 c-34 35 -93 100 -131 144 -38
44 -71 82 -75 85 -23 19 -219 282 -305 410 -254 382 -411 745 -479 1109 -26
136 -31 205 -31 411 0 334 57 585 207 910 53 116 197 359 254 429 7 9 29 39
50 66 84 113 321 381 330 372 2 -1 35 -122 74 -267z m2915 -1851 c149 -45 284
-85 300 -89 32 -9 383 -116 745 -227 118 -36 235 -71 260 -78 25 -7 144 -43
265 -80 288 -88 424 -129 570 -172 66 -19 124 -39 128 -43 4 -4 1 -38 -8 -76
-9 -38 -18 -78 -21 -89 -2 -11 -6 -33 -10 -50 -3 -16 -24 -97 -46 -180 -102
-388 -247 -734 -397 -950 -76 -110 -103 -145 -111 -145 -5 0 -175 52 -377 116
-202 64 -402 126 -443 139 -41 12 -124 39 -185 58 -60 20 -191 61 -290 92 -99
31 -295 93 -435 137 -140 44 -289 90 -330 103 -41 13 -124 39 -185 59 -60 19
-306 96 -547 172 l-436 137 626 628 c391 391 633 626 642 623 8 -2 137 -40
285 -85z m-1625 -1540 c118 -39 224 -74 235 -79 11 -5 281 -95 600 -200 319
-105 589 -195 600 -200 11 -5 368 -124 794 -266 l775 -257 -46 -41 c-102 -93
-137 -122 -229 -192 -262 -198 -553 -346 -819 -418 -83 -22 -121 -30 -250 -51
-54 -9 -199 -19 -283 -18 -303 2 -605 69 -927 205 -80 34 -269 127 -320 158
-267 162 -337 209 -516 346 -67 51 -128 99 -135 106 -8 7 -30 26 -49 42 -47
39 -169 148 -249 222 l-65 61 325 326 c178 179 328 326 334 326 5 1 107 -31
225 -70z"/>
</g>
</svg>
