<?xml version="1.0" encoding="utf-8"?>
<!-- Generator: Adobe Illustrator 21.0.0, SVG Export Plug-In . SVG Version: 6.00 Build 0)  -->
<svg version="1.1" id="Слой_1" xmlns="http://www.w3.org/2000/svg" xmlns:xlink="http://www.w3.org/1999/xlink" x="0px" y="0px"
	 viewBox="0 0 62.9 62.9" style="enable-background:new 0 0 62.9 62.9;" xml:space="preserve">
<style type="text/css">
	.st0{fill:#27492A;}
	.st1{fill:#FFFFFF;}
</style>
<path class="st0" d="M62.9,31.5c0,17.4-14.1,31.5-31.5,31.5C14.1,62.9,0,48.8,0,31.5C0,14.1,14.1,0,31.5,0
	C48.8,0,62.9,14.1,62.9,31.5"/>
<path class="st1" d="M45.9,45.8c7.9-7.9,7.9-20.8,0-28.8c-7.9-7.9-20.8-7.9-28.8,0c-7.9,7.9-7.9,20.8,0,28.8
	C25,53.8,37.9,53.8,45.9,45.8 M19.3,19.3c6.7-6.7,17.6-6.7,24.3,0c6.7,6.7,6.7,17.6,0,24.3c-6.7,6.7-17.6,6.7-24.3,0
	C12.6,36.9,12.6,26,19.3,19.3 M33.7,27.1c0-1.8,1.5-3.3,3.3-3.3c1.8,0,3.3,1.5,3.3,3.3c0,0.5-0.4,1-1,1c-0.5,0-1-0.4-1-1
	c0-0.8-0.6-1.4-1.4-1.4c-0.8,0-1.4,0.6-1.4,1.4c0,0.5-0.4,1-1,1C34.1,28.1,33.7,27.6,33.7,27.1 M23.1,27.1c0-1.8,1.5-3.3,3.3-3.3
	c1.8,0,3.3,1.5,3.3,3.3c0,0.5-0.4,1-1,1c-0.5,0-1-0.4-1-1c0-0.8-0.6-1.4-1.4-1.4c-0.8,0-1.4,0.6-1.4,1.4c0,0.5-0.4,1-1,1
	C23.5,28,23.1,27.6,23.1,27.1 M22.6,35.7c-0.2-0.6,0-1.3,0.6-1.5c0.1-0.1,0.3-0.1,0.4-0.1c0.5,0,0.9,0.3,1.1,0.7
	c1.1,2.6,3.7,4.2,6.7,4.2c2.9,0,5.6-1.7,6.7-4.2c0.3-0.6,0.9-0.9,1.5-0.6c0.6,0.3,0.9,0.9,0.6,1.5c-1.5,3.4-4.9,5.6-8.8,5.6
	C27.5,41.3,24.1,39.1,22.6,35.7"/>
</svg>
