<?xml version="1.0" encoding="utf-8"?>
<!-- Generator: Adobe Illustrator 21.0.0, SVG Export Plug-In . SVG Version: 6.00 Build 0)  -->
<svg version="1.1" id="Слой_1" xmlns="http://www.w3.org/2000/svg" xmlns:xlink="http://www.w3.org/1999/xlink" x="0px" y="0px"
	 viewBox="0 0 62.9 62.9" style="enable-background:new 0 0 62.9 62.9;" xml:space="preserve">
<style type="text/css">
	.st0{fill:#803B7C;}
	.st1{fill:#FFFFFF;}
</style>
<path class="st0" d="M62.9,31.5c0,17.4-14.1,31.5-31.5,31.5C14.1,62.9,0,48.8,0,31.5C0,14.1,14.1,0,31.5,0
	C48.8,0,62.9,14.1,62.9,31.5"/>
<path class="st1" d="M51.3,26.2H36.7V11.6c0-0.5-0.4-0.9-0.9-0.9h-8.8c-0.5,0-0.9,0.4-0.9,0.9v14.6H11.6c-0.5,0-0.9,0.4-0.9,0.9v8.7
	c0,0.5,0.4,0.9,0.9,0.9h14.6v14.6c0,0.5,0.4,0.9,0.9,0.9h8.8c0.5,0,0.9-0.4,0.9-0.9V36.7h14.6c0.5,0,0.9-0.4,0.9-0.9v-8.7
	C52.2,26.6,51.8,26.2,51.3,26.2"/>
</svg>
