<?xml version="1.0" encoding="utf-8"?>
<!-- Generator: Adobe Illustrator 21.0.0, SVG Export Plug-In . SVG Version: 6.00 Build 0)  -->
<svg version="1.1" id="Слой_1" xmlns="http://www.w3.org/2000/svg" xmlns:xlink="http://www.w3.org/1999/xlink" x="0px" y="0px"
	 viewBox="0 0 62.9 62.9" style="enable-background:new 0 0 62.9 62.9;" xml:space="preserve">
<style type="text/css">
	.st0{fill:#26A2C6;}
	.st1{fill:#FFFFFF;}
</style>
<path class="st0" d="M62.9,31.5c0,17.4-14.1,31.5-31.5,31.5C14.1,62.9,0,48.8,0,31.5C0,14.1,14.1,0,31.5,0
	C48.8,0,62.9,14.1,62.9,31.5"/>
<path class="st1" d="M45.9,16.4c-1-1.3-2.2-2.3-3.5-3.1c-0.7-0.4-1.4-0.8-2.1-1.1c-0.4-0.1-0.8-0.3-1.1-0.4l-0.5-0.1l-0.3-0.1
	l-0.3-0.1c-1.5-0.4-3-0.6-4.6-0.5c-1.6,0.1-3.3-0.1-5.2,0.2c-1.8,0.3-3.5,1.3-4.5,2.8c-0.9,1.5-1.5,4.8,0.5,5.9
	c1.5,0.7,4.1-0.1,5.1-0.5c0.9-0.4,1.4-1,1.9-1.9c0.5-0.9,1.4-1.7,2.5-1.8c1-0.1,2.1,0,3.3,0.2l0.2,0c-0.1,0,0.1,0,0.2,0l0.5,0.1
	c0.3,0.1,0.5,0.2,0.8,0.2c0.5,0.2,1,0.4,1.5,0.7c0.9,0.5,1.8,1.2,2.5,2c1.4,1.6,2.1,3.8,2.1,6c0,2.2-0.8,4.5-2.1,6.4
	c-0.2,0.2-0.3,0.5-0.5,0.7l-0.3,0.3l-0.3,0.4c-0.4,0.4-0.8,0.8-1.3,1.1c-0.9,0.7-1.9,1.3-3,1.8c-1.5,0.7-3.2,1.1-4.9,1.4
	c8.3-3.1,7.2-11.8,7.2-11.8c-0.4-1.2-5.9-2.2-12.6-2.2c-6.7,0-12.1,1-12.6,2.2h0c0,0,0,0,0,0.1c0,0,0,0.1,0,0.1v0v0.1
	c0,5.6,3.6,10.3,8.6,12c-0.2,0-0.4,0.1-0.7,0.2c-0.3,0.1-0.7,0.3-1.2,0.9l0,0c-0.3,0.4-0.3,0.6-0.4,0.9c0,0.3,0,0.5,0,0.8
	c0.1,0.5,0.3,0.8,0.5,1c0.2,0.2,0.4,0.4,0.5,0.5c0.2,0.2,0.3,0.2,0.5,0.3c0.2,0.1,0.3,0.2,0.4,0.2c0.1,0.1,0.3,0.1,0.4,0.2
	c0.3,0.1,0.5,0.2,0.8,0.3c0.6,0.2,1.1,0.3,1.7,0.5V44c-3.2,0.6-5.7,3-6.4,6.1c0,0,0,0,0,0c0,0,0,0,0,0h0c0,0,0,0,0,0
	c0,0.9,3.6,1.6,8,1.6c4.4,0,8-0.7,8-1.6c0,0,0,0,0,0h0.1c-0.4-1.9-1.5-3.5-3-4.6c0.2-0.2,0.3-0.5,0.4-0.9c0.2-0.6,0-1.3-0.2-1.6
	c-0.2-0.4-0.4-0.6-0.6-0.8c-0.2-0.2-0.4-0.3-0.6-0.4c-0.7-0.4-1.3-0.7-1.9-0.9c0,0-0.1,0-0.1,0c0.4,0,0.9,0,1.3-0.1
	c2.8-0.2,5.6-0.7,8.3-1.8c1.3-0.6,2.6-1.3,3.8-2.2c0.6-0.5,1.1-0.9,1.7-1.5l0.3-0.4l0.4-0.4c0.3-0.3,0.5-0.6,0.7-0.9
	c1.8-2.4,3-5.3,3.1-8.4C48.8,22.2,47.9,19,45.9,16.4 M26.9,27.9c-5.4,0-9.8-0.8-9.8-1.7c0-0.9,4.4-1.7,9.8-1.7
	c5.4,0,9.8,0.8,9.8,1.7C36.7,27.1,32.3,27.9,26.9,27.9"/>
</svg>
