<?xml version="1.0" encoding="utf-8"?>
<!-- Generator: Adobe Illustrator 21.0.0, SVG Export Plug-In . SVG Version: 6.00 Build 0)  -->
<svg version="1.1" id="Слой_1" xmlns="http://www.w3.org/2000/svg" xmlns:xlink="http://www.w3.org/1999/xlink" x="0px" y="0px"
	 viewBox="0 0 62.9 62.9" style="enable-background:new 0 0 62.9 62.9;" xml:space="preserve">
<style type="text/css">
	.st0{fill:#C26A20;}
	.st1{fill:#FFFFFF;}
</style>
<path class="st0" d="M62.9,31.5c0,17.4-14.1,31.5-31.5,31.5C14.1,62.9,0,48.8,0,31.5C0,14.1,14.1,0,31.5,0
	C48.8,0,62.9,14.1,62.9,31.5"/>
<path class="st1" d="M16.1,24l0,0.3c0.6,0.8,1.9,2.3,4.2,3.9l0.4-0.1c0.8-1.9,2.1-4.7,3.3-6.4l0,0c4.3-6.7,9.8-8.9,13.6-9.5l0-0.6
	c-1.4-0.5-2.8-0.7-4.3-0.9c-0.6-0.1-1.1-0.1-1.7-0.1c-0.8,0-1.5,0.1-2.3,0.3c-2.5,0.6-4.9,2-7.5,4.5C19.3,18,17.4,20.8,16.1,24
	L16.1,24z"/>
<path class="st1" d="M20.7,39.7c2.5,0.9,5.1,1.3,7.9,1.3h0c1,0,2-0.1,3-0.2c0.7-0.1,1.4-0.2,2.2-0.3l0.2,0l0.2-0.3
	c-0.5-2.8-1.6-5.4-3.1-7.3l-0.3-0.1c-0.1,0-0.2,0-0.3,0.1C29,33,27.4,33,25.8,32.8C21,32,17,29.4,14.1,25.1c-0.4-0.6-0.8-1.2-1-1.7
	l-0.5,0c-1.1,2.9-1.6,6.3-1.7,7.4l0,0.2c0.4,0.6,1.3,2.1,2,3C14.9,36.7,17.5,38.6,20.7,39.7"/>
<path class="st1" d="M15,21.8c1.2-2.4,2.6-4.5,4.2-6.4L18.8,15c-1.7,1.3-3.2,2.9-4.5,4.7c-0.1,0.2-0.3,0.5-0.5,0.8l0,0.3
	c0.2,0.3,0.4,0.7,0.6,1L15,21.8z"/>
<path class="st1" d="M23.4,27c-0.3,0.7-0.5,1.4-0.8,2.1l-0.1,0.2l0.2,0.4c2,0.7,4,1.1,5.9,1.1c0.7,0,1.4,0,2-0.1l0.2-0.2
	c0-0.1,0.1-0.2,0.1-0.2c0.5-1.5,1.3-2.9,2.3-4.2c3.1-3.8,7.3-6,12.5-6.4c0.4,0,0.9-0.1,1.5-0.1c0.2,0,0.4,0,0.6,0L48,19
	c-2-2.4-4.6-4.5-5.6-5.1l-0.2,0c-0.7,0-2.5,0.1-3.6,0.3c-3.3,0.4-6.2,1.8-8.8,4C27.1,20.4,25,23.4,23.4,27"/>
<path class="st1" d="M50.2,22.4c-0.1-0.2-0.3-0.5-0.4-0.8l-0.3-0.2c-0.4,0-0.8,0-1.2,0l-0.2,0.5c1.5,2.2,2.6,4.5,3.4,6.9l0.3-0.1
	v0.3v-0.3l0.3-0.1C51.8,26.5,51.2,24.4,50.2,22.4"/>
<path class="st1" d="M29.3,50.8c-1.9,0-3.8-0.2-5.6-0.6l-0.2,0.6c2,0.8,4.1,1.3,6.3,1.5c0.2,0,0.6,0,0.9,0l0.3-0.1
	c0.1-0.2,0.4-0.6,0.6-1l-0.3-0.4C30.6,50.7,30,50.8,29.3,50.8"/>
<path class="st1" d="M45.6,21.8L45.6,21.8l-0.3-0.1c-1,0.1-3,0.5-5.5,1.7l-0.1,0.5c1.3,1.6,3,4.2,3.9,6l0,0c2.3,4.5,3.1,9,2.3,13.5
	c-0.2,1.1-0.5,2.1-0.8,3.1l0.5,0.3c1.1-1,2-2,2.9-3.3c0.8-1.1,1.4-2,1.9-3.5c0.8-2.5,0.7-5.2-0.1-8.7C49.3,27.5,47.8,24.4,45.6,21.8
	"/>
<path class="st1" d="M39.4,26.6C39,26,38.5,25.5,38,24.9l-0.1-0.1l-0.4,0c-2.2,1.8-3.9,4.1-4.8,6.3l0.1,0.3c0.1,0.1,0.1,0.1,0.2,0.2
	c1.1,1.2,1.9,2.6,2.5,4.1c1.8,4.6,1.5,9.3-0.7,14c-0.3,0.6-0.7,1.3-1,1.8l0.3,0.4c3.1-0.5,6.2-1.7,7.2-2.3l0.1-0.1
	c0.3-0.6,1.1-2.2,1.6-3.2c1.3-3.1,1.6-6.3,0.9-9.6C43.2,33.1,41.7,29.8,39.4,26.6"/>
<path class="st1" d="M33.9,42.5c-1.7,0.2-3.8,0.4-5.4,0.4c-0.6,0-1.2,0-1.7-0.1l0,0c-5.1-0.2-9.4-1.9-12.8-4.8
	c-0.8-0.7-1.6-1.5-2.2-2.3L11.2,36c0.3,1.4,0.7,2.8,1.4,4.1c0.6,1.3,1,2.2,2.1,3.4c1.7,1.9,4.1,3.3,7.6,4.3c2.4,0.7,4.8,1.1,7.1,1.1
	c1.1,0,2.2-0.1,3.3-0.2l0,0l0.2-0.2c0.4-0.9,1.1-2.8,1.3-5.6L33.9,42.5z"/>
</svg>
