<?xml version="1.0" encoding="utf-8"?>
<!-- Generator: Adobe Illustrator 21.0.0, SVG Export Plug-In . SVG Version: 6.00 Build 0)  -->
<svg version="1.1" id="Слой_1" xmlns="http://www.w3.org/2000/svg" xmlns:xlink="http://www.w3.org/1999/xlink" x="0px" y="0px"
	 viewBox="0 0 62.9 62.9" style="enable-background:new 0 0 62.9 62.9;" xml:space="preserve">
<style type="text/css">
	.st0{fill:#B41E1C;}
	.st1{fill:#FFFFFF;}
</style>
<path class="st0" d="M62.9,31.5c0,17.4-14.1,31.5-31.5,31.5C14.1,62.9,0,48.8,0,31.5S14.1,0,31.5,0C48.8,0,62.9,14.1,62.9,31.5"/>
<path class="st1" d="M48.6,14C44.2,10,40,8.8,40,8.8l-8.5,28.9h-0.1L22.9,8.8c0,0-4.2,1.2-8.6,5.2c-4.7,4.3-8.8,10.9-8.1,21.3
	c0.5,8.2,6.6,15.2,6.6,15.2l11.8,0c0,0-10.1-5.4-12.6-13.8c-2.9-10,1.6-16.9,5.1-20.2c1.4-1.2,3.5-1.5,4.2,1.1
	C24,26,31.5,50.2,31.5,50.2h0c0,0,7.4-24.2,10.1-32.7c0.8-2.6,2.9-2.4,4.2-1.1c3.5,3.3,8,10.2,5.1,20.2
	c-2.4,8.5-12.6,13.8-12.6,13.8l11.8,0c0,0,6.1-7,6.6-15.2C57.4,24.9,53.4,18.3,48.6,14"/>
</svg>
