<?xml version="1.0" encoding="utf-8"?>
<!-- Generator: Adobe Illustrator 21.0.0, SVG Export Plug-In . SVG Version: 6.00 Build 0)  -->
<svg version="1.1" id="Слой_1" xmlns="http://www.w3.org/2000/svg" xmlns:xlink="http://www.w3.org/1999/xlink" x="0px" y="0px"
	 viewBox="0 0 62.9 62.9" style="enable-background:new 0 0 62.9 62.9;" xml:space="preserve">
<style type="text/css">
	.st0{fill:#492A69;}
	.st1{fill:#FFFFFF;}
</style>
<path class="st0" d="M62.9,31.5c0,17.4-14.1,31.5-31.5,31.5C14.1,62.9,0,48.8,0,31.5C0,14.1,14.1,0,31.5,0
	C48.8,0,62.9,14.1,62.9,31.5"/>
<path class="st1" d="M46,36.5v-8.3c0-6.4-4.4-12.6-11.1-14.2c0,0-0.2-3.2-3.5-3.2c-3.3,0-3.5,3.2-3.5,3.2c-6.6,1.6-11,7.8-11,14.3
	v8.1c0,4-2.6,4.6-5.7,7.8h40.3C48.5,40.9,46,40.5,46,36.5 M31.5,52.2c3.5,0,6.5-2.8,7.3-6.4H24.2C25,49.3,27.9,52.2,31.5,52.2"/>
</svg>
