<?xml version="1.0" encoding="utf-8"?>
<!-- Generator: Adobe Illustrator 21.0.0, SVG Export Plug-In . SVG Version: 6.00 Build 0)  -->
<svg version="1.1" id="Слой_1" xmlns="http://www.w3.org/2000/svg" xmlns:xlink="http://www.w3.org/1999/xlink" x="0px" y="0px"
	 viewBox="0 0 62.9 62.9" style="enable-background:new 0 0 62.9 62.9;" xml:space="preserve">
<style type="text/css">
	.st0{fill:#59918B;}
	.st1{fill:#FFFFFF;}
</style>
<path class="st0" d="M62.9,31.5c0,17.4-14.1,31.5-31.5,31.5C14.1,62.9,0,48.8,0,31.5S14.1,0,31.5,0C48.8,0,62.9,14.1,62.9,31.5"/>
<path class="st1" d="M8.4,20.6c0.9-1,2.2-1.5,3.5-1.5h29.6c0.8,0,1.7,0.2,2.4,0.6l1.5-4.8c0.2-0.8,1-1.3,1.9-1.3H54
	c0.8,0,1.5,0.6,1.5,1.4v0.1c0,0.8-0.7,1.4-1.5,1.4h-5.8L45.3,26l-4,13.1c2.3,0.5,4,2.4,4,4.7c0,2.6-2.2,4.7-4.9,4.8
	c0.2,0.6,0.3,1.3,0.3,2c-0.2,2.3-2.3,4.2-4.8,4.3c-3,0.2-5.5-2-5.5-4.7c0-0.5,0.1-1.1,0.3-1.6h-6.1c0.2,0.6,0.3,1.4,0.3,2.1
	c-0.3,2.2-2.3,4-4.8,4.2c-3,0.2-5.5-2-5.5-4.7c0-2.6,2.4-4.7,5.3-4.7H40c1,0,1.8-0.7,1.9-1.6c0-1-0.8-1.7-1.8-1.7H15.9
	c-2.1,0-3.8-1.3-4.3-3.1l-4-14.8C7.2,22.9,7.5,21.6,8.4,20.6 M19.6,48.7c-0.9,0-1.7,0.7-1.7,1.6s0.8,1.6,1.7,1.6
	c0.9,0,1.7-0.7,1.7-1.6S20.6,48.7,19.6,48.7 M35.5,48.7c-0.9,0-1.7,0.7-1.7,1.6s0.8,1.6,1.7,1.6c0.9,0,1.7-0.7,1.7-1.6
	S36.4,48.7,35.5,48.7 M41.7,26l0.8-2.5c0.1-0.4,0-0.7-0.2-0.8c-0.1-0.1-0.4-0.4-0.8-0.4h-3.2L37.4,26L41.7,26L41.7,26z M40.8,29.2
	h-4.1l-0.8,3.4h3.9L40.8,29.2z M37,39c0.4,0,0.8-0.3,1-0.7l0.8-2.6h-3.7L34.3,39L37,39L37,39z M28.3,39h2.5l0.8-3.2h-3.2L28.3,39
	L28.3,39z M28.3,32.6h4l0.8-3.4h-4.8V32.6z M28.3,26h5.6l0.9-3.7h-6.4V26z M22.1,39h2.7v-3.2h-3.5L22.1,39z M20.6,32.6h4.2v-3.4h-5
	L20.6,32.6z M24.8,26v-3.7h-6.6l0.8,3.7H24.8z M14.9,38.3c0.1,0.4,0.5,0.7,1,0.7h2.7l-0.7-3.2h-3.6L14.9,38.3z M13.3,32.6h3.7
	l-0.8-3.4h-3.9L13.3,32.6z M10.9,23.4l0.7,2.5h4l-0.8-3.7h-2.8c-0.4,0-0.7,0.2-0.8,0.4C10.9,22.8,10.8,23.1,10.9,23.4"/>
</svg>
