<?xml version="1.0" encoding="utf-8"?>
<!-- Generator: Adobe Illustrator 21.0.0, SVG Export Plug-In . SVG Version: 6.00 Build 0)  -->
<svg version="1.1" id="Слой_1" xmlns="http://www.w3.org/2000/svg" xmlns:xlink="http://www.w3.org/1999/xlink" x="0px" y="0px"
	 viewBox="0 0 62.9 62.9" style="enable-background:new 0 0 62.9 62.9;" xml:space="preserve">
<style type="text/css">
	.st0{fill:#EBBE61;}
	.st1{fill:#FFFFFF;}
</style>
<path class="st0" d="M62.9,31.5c0,17.4-14.1,31.5-31.5,31.5C14.1,62.9,0,48.8,0,31.5C0,14.1,14.1,0,31.5,0
	C48.8,0,62.9,14.1,62.9,31.5"/>
<path class="st1" d="M48.7,51.2l-2.1-32.2c0-0.7-0.6-1.3-1.3-1.3h-5.9v-0.9c0-3.7-3-6.7-6.7-6.7h-2.3c-3.7,0-6.7,3-6.7,6.7v0.9h-5.9
	c-0.7,0-1.3,0.5-1.3,1.3l-2.1,32.2c0,0.4,0.1,0.7,0.4,1c0.3,0.3,0.6,0.4,1,0.4h31.8c0.7,0,1.3-0.6,1.3-1.3
	C48.7,51.3,48.7,51.3,48.7,51.2 M26.3,16.9c0-2.2,1.8-4,4-4h2.3c2.2,0,4,1.8,4,4v0.9H26.3V16.9z M17,50L19,20.5h4.6v1.2
	c-1,0.5-1.6,1.5-1.6,2.6c0,1.6,1.3,3,3,3s3-1.3,3-3c0-1.1-0.7-2.1-1.6-2.6v-1.2h10.4v1.2c-1,0.5-1.6,1.5-1.6,2.6c0,1.6,1.3,3,3,3
	s3-1.3,3-3c0-1.1-0.7-2.1-1.6-2.6v-1.2H44L45.9,50H17z"/>
</svg>
