<?xml version="1.0" encoding="utf-8"?>
<!-- Generator: Adobe Illustrator 21.0.0, SVG Export Plug-In . SVG Version: 6.00 Build 0)  -->
<svg version="1.1" id="Слой_1" xmlns="http://www.w3.org/2000/svg" xmlns:xlink="http://www.w3.org/1999/xlink" x="0px" y="0px"
	 viewBox="0 0 62.9 62.9" style="enable-background:new 0 0 62.9 62.9;" xml:space="preserve">
<style type="text/css">
	.st0{fill:#801F1B;}
	.st1{fill:#FFFFFF;}
</style>
<path class="st0" d="M62.9,31.5c0,17.4-14.1,31.5-31.5,31.5C14.1,62.9,0,48.8,0,31.5C0,14.1,14.1,0,31.5,0
	C48.8,0,62.9,14.1,62.9,31.5"/>
<path class="st1" d="M33.1,47.1V32.9c6.7-0.8,11.5-6.4,11.5-12.8c0-2.4-0.7-5.4-1.8-8.4c-0.2-0.6-0.9-1-1.5-1h-19
	c-0.7,0-1.3,0.4-1.5,1c-1.1,2.6-1.9,5.7-1.8,8.6c0,0,0,0,0,0c0.1,6.3,4.9,11.8,11.5,12.5v14.3c-4.4,0.4-7.7,2.3-7.7,3.3
	c0,1.1,4.1,2,9.1,2c5,0,9.1-0.9,9.1-2C40.8,49.4,37.5,47.5,33.1,47.1 M23,13.5h17.5c0.9,2.4,1.4,4.7,1.4,6.6c0,0.5,0,0.9-0.1,1.3
	c-0.9-0.2-1.8-0.2-2.7,0.1c-2.5,0.9-4.2,1.5-6.7,0.5c-2.5-1-4.2-5.5-7.2-5.2c-1.2,0.1-2.3,0.5-3.2,1.1C22.1,16.5,22.4,15,23,13.5"/>
</svg>
