<?xml version="1.0" encoding="utf-8"?>
<!-- Generator: Adobe Illustrator 21.0.0, SVG Export Plug-In . SVG Version: 6.00 Build 0)  -->
<svg version="1.1" id="Слой_1" xmlns="http://www.w3.org/2000/svg" xmlns:xlink="http://www.w3.org/1999/xlink" x="0px" y="0px"
	 viewBox="0 0 717.3 506.7" style="enable-background:new 0 0 717.3 506.7;" xml:space="preserve">
<style type="text/css">
	.st0{fill:#F5F5F5;}
	.st1{fill:#C7B8B3;stroke:#243C2F;stroke-width:0.8684;stroke-miterlimit:10;}
	.st2{fill:#DEEAF5;stroke:#243C2F;stroke-width:0.8684;stroke-miterlimit:10;}
	.st3{fill:#C4C4C4;}
	.st4{fill:none;stroke:#C4C4C4;stroke-width:3;stroke-miterlimit:10;}
	.st5{fill:#92B08E;}
	.st6{fill:#2F1B17;}
	.st7{fill:#243C2F;}
	.st8{fill:#263B3C;}
	.st9{fill:#FFFFFF;}
</style>
<g>
	<polygon class="st0" points="717.3,506.7 0,506.7 0.1,0 714.4,0 	"/>
	<polygon class="st1" points="314.9,265.9 398.1,246.6 435,413.9 330.5,436.9 324.7,410.6 401.6,393.6 376.1,278.7 320.9,291.9 	"/>
	<polygon class="st1" points="142.9,197.1 322.5,157.5 328.8,186.1 250.4,203.4 285.9,356.2 183.3,380.3 177.2,352.7 251.1,335.9 
		224.4,209.4 149.2,226 	"/>
	<polygon class="st2" points="113.8,177.4 227.2,152.4 221.2,125.2 107.8,150.2 	"/>
	<polygon class="st2" points="288.8,138.9 370.4,120.8 364.4,93.6 282.8,111.6 	"/>
	<polyline class="st3" points="461.2,437 149.2,505.8 229.9,506.7 481.8,451.2 401.1,85.5 378.1,0.6 359.3,0.6 383.2,89.4 
		465.2,454.8 	"/>
	<line class="st4" x1="362" y1="282.1" x2="356.2" y2="255.8"/>
	<line class="st4" x1="379.3" y1="293.3" x2="407.1" y2="287.2"/>
	<line class="st4" x1="392.7" y1="353.4" x2="420.3" y2="347.3"/>
	<line class="st4" x1="399.5" y1="384.8" x2="427.3" y2="378.7"/>
	<line class="st4" x1="383.7" y1="397.6" x2="389.5" y2="423.9"/>
	<line class="st4" x1="354.3" y1="404.1" x2="360.1" y2="430.4"/>
	<polygon class="st5" points="309.8,0.6 319.7,42.7 311.4,44.5 325.5,80.7 100.8,130.2 98.5,119.7 0.8,143.1 1,0.6 	"/>
	
		<rect x="288.3" y="415.4" transform="matrix(0.9766 -0.2153 0.2153 0.9766 -85.1952 75.5877)" class="st1" width="32.2" height="27"/>
	<g>
		<path class="st6" d="M407.1,185.2l6.1-5l0.3,1.5l-4.8,3.9l5.9,1.3l0.3,1.5l-13-3l-0.3-1.5L407.1,185.2z"/>
		<path class="st6" d="M409,197.1l-0.3-1.3l6.3-1.4l-0.6-2.7l-3.4,0.7c-0.6,0.1-1.5,0.3-2.3-0.1c-0.3-0.2-1-0.6-1.2-1.6
			c0-0.1,0-0.3-0.1-0.4l1.2-0.3c0,0.1,0,0.2,0,0.3c0.1,0.5,0.4,0.7,0.7,0.8c0.4,0.2,0.9,0.1,1.3,0l4.6-1l1.2,5.3L409,197.1z"/>
		<path class="st6" d="M411.4,200c0.1,0.5-0.2,1-0.7,1.1c-0.5,0.1-1-0.2-1.1-0.7c-0.1-0.5,0.2-1,0.7-1.1
			C410.7,199.2,411.2,199.5,411.4,200z"/>
		<path class="st6" d="M422.9,215.4c0.3-0.5,0.6-1.1,0.8-1.8c0.2-0.7,0.2-1.5,0-2.2c-0.6-2.8-3.3-4.4-6.1-3.8
			c-3.3,0.7-4.4,3.8-3.9,6c0.2,0.8,0.6,1.6,1.1,2.1c0.5,0.6,1.1,1,1.3,1.2l-1.7,0.4c-1.3-1.1-1.8-2.5-2-3.4
			c-0.8-3.6,1.3-6.9,4.8-7.6c3.6-0.8,6.9,1.3,7.7,4.9c0.2,0.7,0.4,2.1-0.4,3.8L422.9,215.4z"/>
		<path class="st6" d="M420.9,220.8l-6.3,1.4l-0.3-1.3l6.3-1.4l-0.5-2.4l1.2-0.3l1.3,6l-1.2,0.3L420.9,220.8z"/>
		<path class="st6" d="M416.6,228.2l6.1-5l0.3,1.5l-4.8,3.9l5.9,1.3l0.3,1.5l-13-3l-0.3-1.5L416.6,228.2z"/>
		<path class="st6" d="M426,238.5l-6.3,1.4l0.2,1.1l-3.2,0.7l-0.3-1.2l2-0.4l-1.3-5.7l-2,0.4l-0.3-1.2l3.2-0.7
			c0.2,0.6,0.7,1,1.3,1.2c0.6,0.1,1.3,0,2.1-0.1l3.4-0.7L426,238.5z M424.5,237.5l-0.6-2.7l-2.8,0.6c-0.9,0.2-1.7,0.2-2.5-0.4
			l0.8,3.6L424.5,237.5z"/>
		<path class="st6" d="M422.4,248.9c-0.5-0.1-1-0.4-1.4-0.7c-0.8-0.6-1.3-1.3-1.5-2.3c-0.4-1.8,0.3-4,3.1-4.6
			c2.3-0.5,4.3,0.5,4.8,2.8c0.3,1.5-0.2,2.6-0.8,3.2c-0.6,0.6-1.7,1.1-2.7,1.3l-1.3-5.9c-1.6,0.4-2.3,1.7-2,3
			c0.1,0.6,0.4,1.1,0.9,1.4c0.4,0.3,0.8,0.5,1.2,0.6L422.4,248.9z M424.8,247.1c1.1-0.5,1.7-1.5,1.5-2.6c-0.2-1.1-1.3-1.8-2.5-1.8
			L424.8,247.1z"/>
		<path class="st6" d="M428.5,249.8l0.3,1.3l-3.1,0.7l0.8,3.6l3.1-0.7l0.3,1.3l-7.5,1.7l-0.3-1.3l3.3-0.7l-0.8-3.6l-3.3,0.7
			l-0.3-1.3L428.5,249.8z"/>
		<path class="st6" d="M426.7,263.4c-0.2-0.5-0.4-1.2-0.6-1.7c-0.1-0.4-0.3-1.3,0.1-2c0.3-0.6,1-0.9,1.7-1l2.3-0.5l0.3,1.3l-2.2,0.5
			c-0.3,0.1-0.7,0.2-0.9,0.4c-0.4,0.3-0.3,0.9-0.2,1.3c0.1,0.5,0.3,1.1,0.5,1.6l3.4-0.7l0.3,1.3l-7.5,1.7l-0.3-1.3L426.7,263.4z"/>
		<path class="st6" d="M428,274.1c-0.5-0.1-1-0.4-1.4-0.7c-0.8-0.6-1.3-1.3-1.5-2.3c-0.4-1.8,0.3-4,3.1-4.6c2.3-0.5,4.3,0.5,4.8,2.8
			c0.3,1.5-0.2,2.6-0.8,3.2c-0.6,0.6-1.7,1.1-2.7,1.3l-1.3-5.9c-1.6,0.4-2.3,1.7-2,3c0.1,0.6,0.4,1.1,0.9,1.4
			c0.4,0.3,0.8,0.5,1.2,0.6L428,274.1z M430.4,272.3c1.1-0.5,1.7-1.5,1.5-2.6c-0.2-1.1-1.3-1.8-2.4-1.8L430.4,272.3z"/>
		<path class="st6" d="M433.3,281.3c0.7-0.9,0.8-1.9,0.6-2.6c-0.3-1.4-1.6-2.5-3.4-2c-1.8,0.4-2.5,1.9-2.2,3.3
			c0.2,0.8,0.7,1.7,1.7,2.2l-1.6,0.3c-0.8-0.7-1.2-1.5-1.3-2.2c-0.5-2.3,0.8-4.4,3.1-4.9c2.3-0.5,4.4,0.8,4.9,3.2
			c0.3,1.2,0,2.1-0.2,2.5L433.3,281.3z"/>
		<path class="st6" d="M436.1,284.2l-3.1,0.7l3.8,2.4l0.4,1.6l-4.1-2.5l-3.4,4.6l-0.4-1.7l2.7-3.7l-0.5-0.3l-2.9,0.6l-0.3-1.3
			l7.5-1.7L436.1,284.2z"/>
		<path class="st6" d="M438.8,296.3l0.3,1.3l-7.5,1.7l-0.3-1.3l1.1-0.2c-0.7-0.3-1.5-1-1.8-2.3c-0.4-1.9,0.5-4,3.2-4.5
			c2.6-0.6,4.3,0.9,4.8,2.8c0.3,1.5-0.3,2.4-0.7,2.9L438.8,296.3z M433.9,292.3c-1.6,0.4-2.6,1.5-2.3,3.1c0.4,1.6,1.9,2.2,3.4,1.9
			c1.9-0.4,2.5-2,2.2-3.1C437,292.8,435.8,291.9,433.9,292.3z"/>
		<path class="st6" d="M435.5,302.6c0-0.1-0.1-0.9,0.3-1.6c0.2-0.4,0.7-0.8,1.4-0.9c0.7-0.2,1.4,0,1.8,0.3c0.8,0.5,1,1.3,1.1,2.1
			l0.6,2.6l-7.5,1.7l-0.3-1.3l3-0.7l-0.2-0.8l-3.5-1.5l-0.3-1.6L435.5,302.6z M439.3,304l-0.3-1.2c-0.1-0.5-0.2-0.9-0.5-1.1
			c-0.2-0.2-0.5-0.4-1-0.3c-0.4,0.1-0.7,0.3-0.8,0.7c-0.2,0.4,0,0.9,0,1.2l0.3,1.2L439.3,304z"/>
	</g>
	<g>
		<path class="st6" d="M253.1,494.3l-5-6.1l1.5-0.3l3.9,4.8l1.3-5.9l1.5-0.3l-3,13l-1.5,0.3L253.1,494.3z"/>
		<path class="st6" d="M264.9,492.4l-1.3,0.3l-1.4-6.3l-2.7,0.6l0.7,3.4c0.1,0.6,0.3,1.5-0.1,2.3c-0.2,0.3-0.6,1-1.6,1.2
			c-0.1,0-0.3,0-0.4,0.1l-0.3-1.2c0.1,0,0.2,0,0.3,0c0.5-0.1,0.7-0.4,0.8-0.7c0.2-0.4,0.1-0.9,0-1.3l-1-4.6l5.3-1.2L264.9,492.4z"/>
		<path class="st6" d="M267.9,490c0.5-0.1,1,0.2,1.1,0.7c0.1,0.5-0.2,1-0.7,1.1c-0.5,0.1-1-0.2-1.1-0.7
			C267.1,490.7,267.4,490.2,267.9,490z"/>
		<path class="st6" d="M274,479.3c0.7-1.7,1.9-2.3,3.1-2.5c0.6-0.1,1.7-0.3,2.7,0.3c0.6,0.4,1.2,1,1.4,2c0.3,1.2-0.3,2.3-1.1,2.9
			c1.7,0,2.8,1.1,3.1,2.6c0.3,1.5-0.2,2.6-0.9,3.3c-0.6,0.7-1.6,1.2-2.6,1.4c-2.4,0.5-4.1-0.7-5-1.9l1.2-0.9
			c0.8,1.3,2.2,1.8,3.6,1.5c0.7-0.1,1.3-0.5,1.7-0.9c0.7-0.7,0.7-1.5,0.6-2.2c-0.5-2.2-2.6-1.9-3.8-1.7l-1.1,0.2l-0.3-1.3l1.1-0.2
			c1.7-0.4,2.3-1.5,2-2.6c-0.1-0.5-0.4-0.9-0.8-1.2c-0.6-0.4-1.3-0.3-1.8-0.2c-0.9,0.2-1.7,0.6-2.1,1.8L274,479.3z"/>
		<path class="st6" d="M292.5,484.3c-0.1,0.5-0.4,1-0.7,1.4c-0.6,0.8-1.3,1.3-2.3,1.5c-1.8,0.4-4-0.3-4.6-3.1
			c-0.5-2.3,0.5-4.3,2.8-4.8c1.5-0.3,2.6,0.2,3.2,0.8c0.6,0.6,1.1,1.7,1.3,2.7l-5.9,1.3c0.4,1.6,1.7,2.3,3,2
			c0.6-0.1,1.1-0.4,1.4-0.9c0.3-0.4,0.5-0.8,0.6-1.2L292.5,484.3z M290.6,481.9c-0.5-1.1-1.5-1.7-2.6-1.5c-1.1,0.2-1.8,1.3-1.8,2.5
			L290.6,481.9z"/>
		<path class="st6" d="M294.1,477.5l4.5,5.4l1.7-6.8l3.6,7.7l-1.3,0.3l-2-4.4l-1.4,5.8l-3.7-4.6l0.1,4.9l-1.3,0.3L294.1,477.5z"/>
		<path class="st6" d="M311.2,482.2l-1.3,0.3l-1.4-6.3l-2.7,0.6l0.7,3.4c0.1,0.6,0.3,1.5-0.1,2.3c-0.2,0.3-0.6,1-1.6,1.2
			c-0.1,0-0.3,0-0.4,0.1l-0.3-1.2c0.1,0,0.2,0,0.3,0c0.5-0.1,0.7-0.4,0.8-0.7c0.2-0.4,0.1-0.9,0-1.3l-1-4.6l5.3-1.2L311.2,482.2z"/>
		<path class="st6" d="M319.9,478.3c-0.1,0.5-0.4,1-0.7,1.4c-0.6,0.8-1.3,1.3-2.3,1.5c-1.8,0.4-4-0.3-4.6-3.1
			c-0.5-2.3,0.5-4.3,2.8-4.8c1.5-0.3,2.6,0.2,3.2,0.8c0.6,0.6,1.1,1.7,1.3,2.7l-5.9,1.3c0.4,1.6,1.7,2.3,3,2
			c0.6-0.1,1.1-0.4,1.4-0.9c0.3-0.4,0.5-0.8,0.6-1.2L319.9,478.3z M318.1,475.9c-0.5-1.1-1.5-1.7-2.6-1.5c-1.1,0.2-1.8,1.3-1.8,2.5
			L318.1,475.9z"/>
		<path class="st6" d="M326.6,470.9l1.4,6.3l1.1-0.2l0.7,3.2l-1.2,0.3l-0.4-2l-5.7,1.3l0.4,2l-1.2,0.3l-0.7-3.2
			c0.7-0.2,1-0.7,1.2-1.3c0.1-0.6,0-1.3-0.1-2.1l-0.7-3.4L326.6,470.9z M325.6,472.4l-2.7,0.6l0.6,2.8c0.2,0.9,0.2,1.7-0.4,2.5
			l3.6-0.8L325.6,472.4z"/>
		<path class="st6" d="M337,474.5c-0.1,0.5-0.4,1-0.7,1.4c-0.6,0.8-1.3,1.3-2.3,1.5c-1.8,0.4-4-0.3-4.6-3.1
			c-0.5-2.3,0.5-4.3,2.8-4.8c1.5-0.3,2.6,0.2,3.2,0.8c0.6,0.6,1.1,1.7,1.3,2.7l-5.9,1.3c0.4,1.6,1.7,2.3,3,2
			c0.6-0.1,1.1-0.4,1.4-0.9c0.3-0.4,0.5-0.8,0.6-1.2L337,474.5z M335.2,472.1c-0.5-1.1-1.5-1.7-2.6-1.5c-1.1,0.2-1.8,1.3-1.8,2.5
			L335.2,472.1z"/>
		<path class="st6" d="M345.2,474.7l-1.3,0.3l-1.4-6.3l-2.7,0.6l0.7,3.4c0.1,0.6,0.3,1.5-0.1,2.3c-0.2,0.3-0.6,1-1.6,1.2
			c-0.1,0-0.3,0-0.4,0.1l-0.3-1.2c0.1,0,0.2,0,0.3,0c0.5-0.1,0.7-0.4,0.8-0.7c0.2-0.4,0.1-0.9,0-1.3l-1-4.6l5.3-1.2L345.2,474.7z"/>
		<path class="st6" d="M346,466.6l1.3-0.3l0.6,2.9l1.3-0.3c0.7-0.1,1.6-0.3,2.5,0.2c0.4,0.2,0.8,0.7,0.9,1.5c0.2,0.8,0,1.5-0.3,1.8
			c-0.5,0.8-1.3,1-2.1,1.1l-2.6,0.6L346,466.6z M350,472.4c0.4-0.1,0.9-0.2,1.1-0.5c0.1-0.1,0.4-0.5,0.3-1.1
			c-0.1-0.3-0.2-0.7-0.7-0.8c-0.4-0.1-0.8-0.1-1.2,0l-1.2,0.3l0.5,2.3L350,472.4z"/>
		<path class="st6" d="M358.3,468.7c-0.5,0.2-1.2,0.4-1.7,0.6c-0.4,0.1-1.3,0.3-2-0.1c-0.6-0.3-0.9-1-1-1.7l-0.5-2.3l1.3-0.3
			l0.5,2.2c0.1,0.3,0.2,0.7,0.4,0.9c0.3,0.4,0.9,0.3,1.3,0.2c0.5-0.1,1.1-0.3,1.6-0.5l-0.7-3.4l1.3-0.3l1.7,7.5l-1.3,0.3
			L358.3,468.7z"/>
		<path class="st6" d="M369,467.4c-0.1,0.5-0.4,1-0.7,1.4c-0.6,0.8-1.3,1.3-2.3,1.5c-1.8,0.4-4-0.3-4.6-3.1
			c-0.5-2.3,0.5-4.3,2.8-4.8c1.5-0.3,2.6,0.2,3.2,0.8c0.6,0.6,1.1,1.7,1.3,2.7l-5.9,1.3c0.4,1.6,1.7,2.3,3,2
			c0.6-0.1,1.1-0.4,1.4-0.9c0.3-0.4,0.5-0.8,0.6-1.2L369,467.4z M367.1,465c-0.5-1.1-1.5-1.7-2.6-1.5c-1.1,0.2-1.8,1.3-1.8,2.5
			L367.1,465z"/>
		<path class="st6" d="M376.2,462.2c-0.9-0.7-1.9-0.8-2.6-0.6c-1.4,0.3-2.5,1.6-2,3.4c0.4,1.8,1.9,2.5,3.3,2.2
			c0.8-0.2,1.7-0.7,2.2-1.7l0.3,1.6c-0.7,0.8-1.5,1.2-2.2,1.3c-2.3,0.5-4.4-0.8-4.9-3.1c-0.5-2.3,0.8-4.4,3.2-4.9
			c1.2-0.3,2.1,0,2.5,0.2L376.2,462.2z"/>
		<path class="st6" d="M379.1,459.3l0.7,3.1l2.4-3.8l1.6-0.4l-2.5,4.1l4.6,3.4l-1.7,0.4l-3.7-2.7l-0.3,0.5l0.6,2.9l-1.3,0.3
			l-1.7-7.5L379.1,459.3z"/>
		<path class="st6" d="M391.2,456.6l1.3-0.3l1.7,7.5l-1.3,0.3l-0.2-1.1c-0.3,0.7-1,1.5-2.3,1.8c-1.9,0.4-4-0.5-4.6-3.2
			c-0.6-2.6,0.9-4.3,2.8-4.8c1.5-0.3,2.4,0.3,2.9,0.7L391.2,456.6z M387.2,461.5c0.4,1.6,1.5,2.6,3.1,2.3c1.6-0.4,2.2-1.9,1.9-3.4
			c-0.4-1.9-2-2.5-3.1-2.2C387.7,458.4,386.8,459.6,387.2,461.5z"/>
		<path class="st6" d="M397.5,459.9c-0.1,0-0.9,0.1-1.6-0.3c-0.4-0.2-0.8-0.7-0.9-1.4c-0.2-0.7,0-1.4,0.3-1.8c0.5-0.8,1.3-1,2.1-1.1
			l2.6-0.6l1.7,7.5l-1.3,0.3l-0.7-3l-0.8,0.2l-1.5,3.5l-1.6,0.3L397.5,459.9z M398.9,456.2l-1.2,0.3c-0.5,0.1-0.9,0.2-1.1,0.5
			c-0.2,0.2-0.4,0.5-0.3,1c0.1,0.4,0.3,0.7,0.7,0.8c0.4,0.2,0.9,0,1.2,0l1.2-0.3L398.9,456.2z"/>
	</g>
	<g>
		<path class="st7" d="M147.8,69l2.7,12.1l-1.3,0.3l-2.4-10.8l-6.2,1.4l2.4,10.8l-1.3,0.3L138.9,71L147.8,69z"/>
		<path class="st7" d="M152.9,72.7l1.1,5L158,71l1.8,8.1l-1.3,0.3l-1.1-5l-3.9,6.7l-1.8-8.1L152.9,72.7z"/>
		<path class="st7" d="M160.9,74.9c-0.5-2.3,0.8-4.3,3.1-4.9c2.3-0.5,4.4,0.8,4.9,3.1c0.5,2.3-0.8,4.3-3.1,4.8
			C163.5,78.5,161.4,77.2,160.9,74.9z M162.3,74.6c0.4,1.9,1.9,2.5,3.3,2.2c1.4-0.3,2.4-1.5,2-3.4c-0.4-1.9-1.9-2.5-3.3-2.2
			C162.9,71.5,161.9,72.8,162.3,74.6z"/>
		<path class="st7" d="M170.1,68.9l1.3-0.3l0.7,3.1l3.6-0.8l-0.7-3.1l1.3-0.3l1.7,7.5l-1.3,0.3l-0.7-3.3l-3.6,0.8l0.7,3.3l-1.3,0.3
			L170.1,68.9z"/>
		<path class="st7" d="M186.7,71.2c-0.1,0.5-0.4,1-0.7,1.4c-0.6,0.8-1.3,1.3-2.3,1.5c-1.8,0.4-4-0.3-4.6-3.1
			c-0.5-2.3,0.5-4.3,2.8-4.8c1.5-0.3,2.6,0.2,3.2,0.8c0.6,0.6,1.1,1.7,1.3,2.7l-5.9,1.3c0.4,1.6,1.7,2.3,3,2
			c0.6-0.1,1.1-0.4,1.4-0.9c0.3-0.4,0.5-0.8,0.6-1.2L186.7,71.2z M184.8,68.8c-0.5-1.1-1.5-1.7-2.6-1.5c-1.1,0.2-1.8,1.3-1.8,2.4
			L184.8,68.8z"/>
		<path class="st7" d="M191.4,76.6l-1.3,0.3l-2.6-11.8l1.3-0.3l0.2,1.1c0.6-1.3,1.8-1.7,2.3-1.8c2.4-0.5,4.1,1.2,4.5,3.2
			c0.5,2.1-0.5,4.2-2.7,4.7c-1.2,0.3-2.2-0.1-2.9-0.7L191.4,76.6z M194.5,67.5c-0.4-1.9-1.9-2.6-3.1-2.3c-1.2,0.3-2.3,1.6-1.9,3.4
			c0.3,1.5,1.6,2.6,3.1,2.2C194.2,70.5,194.9,69,194.5,67.5z"/>
		<path class="st7" d="M203.4,63.8c-0.9-0.7-1.9-0.8-2.6-0.6c-1.4,0.3-2.5,1.6-2,3.4s1.9,2.5,3.3,2.2c0.8-0.2,1.7-0.7,2.2-1.7
			l0.3,1.6c-0.7,0.8-1.5,1.2-2.2,1.3c-2.3,0.5-4.4-0.8-4.9-3.1c-0.5-2.3,0.8-4.4,3.2-4.9c1.2-0.3,2.1,0,2.5,0.2L203.4,63.8z"/>
		<path class="st7" d="M206.3,60.9L207,64l2.4-3.8l1.6-0.4l-2.5,4.1l4.6,3.4l-1.7,0.4l-3.7-2.7l-0.3,0.5l0.6,2.9l-1.3,0.3l-1.7-7.5
			L206.3,60.9z"/>
		<path class="st7" d="M214,59.3l1.1,5l3.9-6.7l1.8,8.1l-1.3,0.3l-1.1-5l-3.9,6.7l-1.8-8.1L214,59.3z"/>
		<path class="st7" d="M222.5,53.5c0.3,0.6,0.9,0.9,1.8,0.7c0.9-0.2,1.3-0.8,1.3-1.4l1.2,0.2c-0.1,1.2-1,2.1-2.2,2.3s-2.4-0.2-3-1.2
			L222.5,53.5z M222.9,57.3l1.1,5l3.9-6.7l1.8,8.1l-1.3,0.3l-1.1-5l-3.9,6.7l-1.8-8.1L222.9,57.3z"/>
		<path class="st7" d="M241.1,55.5c-0.9-0.7-1.9-0.8-2.6-0.6c-1.4,0.3-2.5,1.6-2,3.4c0.4,1.8,1.9,2.5,3.3,2.2
			c0.8-0.2,1.7-0.7,2.2-1.7l0.3,1.6c-0.7,0.8-1.5,1.2-2.2,1.3c-2.3,0.5-4.4-0.8-4.9-3.1c-0.5-2.3,0.8-4.4,3.2-4.9
			c1.2-0.3,2.1,0,2.5,0.2L241.1,55.5z"/>
		<path class="st7" d="M248.5,51.6l1.3-0.3l1.7,7.5l-1.3,0.3l-0.2-1.1c-0.3,0.7-1,1.5-2.3,1.8c-1.9,0.4-4-0.5-4.5-3.2
			c-0.6-2.6,0.9-4.3,2.8-4.8c1.5-0.3,2.4,0.3,2.9,0.7L248.5,51.6z M244.4,56.5c0.4,1.6,1.5,2.6,3.1,2.3c1.6-0.4,2.2-1.9,1.9-3.4
			c-0.4-1.9-2-2.5-3.1-2.2C245,53.4,244,54.6,244.4,56.5z"/>
		<path class="st7" d="M258.1,49.5l1.4,6.3l1.1-0.2l0.7,3.2l-1.2,0.3l-0.4-2l-5.7,1.3l0.4,2l-1.2,0.3l-0.7-3.2
			c0.6-0.2,1-0.7,1.2-1.3c0.1-0.6,0-1.3-0.1-2.1l-0.7-3.4L258.1,49.5z M257.1,51l-2.7,0.6l0.6,2.8c0.2,0.9,0.2,1.7-0.4,2.5l3.6-0.8
			L257.1,51z"/>
	</g>
	<g>
		<path class="st8" d="M21.5,428.8l0.1,0.1l13.3,2.1l0.1,0.1c0.6,9.7,7.3,19.2,16.4,23.1c2.8,1.3,5.8,2,9,2.3l0.1,0.2l2.1,13.2
			c0.1,0.1,0.2,0.2,0.3,0.1l0.1-0.1l2.1-13.3l0.1-0.1c9.8-0.7,19.3-7.4,23.2-16.6c1.2-2.7,1.9-5.6,2.2-8.7l0.1-0.1l13.2-2.1
			c0.1-0.1,0.2-0.2,0.1-0.3l-0.1-0.1l-13.3-2.1l-0.1-0.1c-0.7-9.8-7.4-19.3-16.6-23.2c-2.7-1.2-5.6-1.9-8.8-2.2l-0.1-0.1l-2.1-13.2
			c0-0.1-0.1-0.1-0.2-0.1c-0.1,0-0.2,0.1-0.3,0.3l-2.1,13.2l-0.1,0.1c-9.7,0.6-19.2,7.3-23.1,16.4c-1.3,2.8-2,5.8-2.3,9l-0.1,0.1
			l-13.2,2.1C21.5,428.6,21.4,428.7,21.5,428.8z M81.5,409.4c-0.5,0.3-1,0.6-1.5,0.9c-1.2-1.1-2.4-2.1-3.7-2.9l-0.1,0.1l-0.6,4.3
			l-3.2-2l3.7-2.4c-3.2-2-6.7-3.2-10.4-3.7l-0.3-1.7C71.5,402.5,76.9,405,81.5,409.4L81.5,409.4z M80.2,424.7l-6.2-1l3.1-5.3
			l0.1-0.2C78.7,420.1,79.7,422.3,80.2,424.7z M77.8,417.2l1-1.7c1.5,1.9,2.8,4,3.5,6.3c0.4,1.1,0.7,2.2,0.8,3.4l-1.9-0.3
			C80.8,422,79.6,419.5,77.8,417.2z M73.6,423.4l-0.1,0.1c-1.5-0.2-3-0.5-4.5-0.7L80.8,411L73.6,423.4z M67.8,417.4l-1-6.2
			c2.3,0.5,4.6,1.5,6.5,3l0,0L67.8,417.4z M66.7,410.1L66.7,410.1l-0.4-1.9c3.6,0.6,6.8,2.1,9.6,4.4c-0.5,0.4-1.1,0.6-1.6,1h-0.1
			C71.9,411.9,69.4,410.7,66.7,410.1z M89.5,426.1c-0.6-0.1-1.2-0.2-1.7-0.3c-0.4-3.8-1.6-7.3-3.7-10.4l-2.4,3.7l-2-3.2l4.3-0.5
			l0.1-0.1c-0.8-1.3-1.8-2.6-2.9-3.7c0.2-0.5,0.6-1,0.9-1.5h0.1c2.4,2.5,4.1,5.2,5.4,8.2C88.6,420.6,89.3,423.3,89.5,426.1z
			 M82,447.4c-0.3-0.5-0.6-1-0.9-1.5c1.1-1.2,2.1-2.4,2.9-3.8l-0.1-0.1l-4.3-0.6l2-3.2l2.4,3.7c2-3.2,3.2-6.7,3.7-10.4l1.7-0.3
			C88.9,437.4,86.5,442.8,82,447.4L82,447.4z M66.8,446.2l1-6.2l5.3,3.1l0.2,0.2C71.3,444.7,69.1,445.7,66.8,446.2z M74.3,443.8
			l1.7,1c-1.9,1.5-4,2.8-6.3,3.5c-1.1,0.4-2.2,0.7-3.4,0.8l0.3-1.9C69.4,446.8,71.9,445.6,74.3,443.8z M67.9,439.4
			c0.2-1.5,0.5-3,0.7-4.5l11.8,11.8L68,439.6L67.9,439.4z M74.1,433.8l6.2-1c-0.5,2.4-1.5,4.6-3,6.5l0,0L74.1,433.8z M81.3,432.7
			L81.3,432.7l1.9-0.4c-0.6,3.6-2.1,6.8-4.4,9.6c-0.3-0.5-0.6-1.1-0.9-1.6v-0.1C79.6,437.9,80.7,435.4,81.3,432.7z M65.3,455.5
			c0.1-0.6,0.2-1.2,0.3-1.7c3.8-0.4,7.3-1.6,10.4-3.7l-3.7-2.4l3.2-2l0.5,4.3l0.1,0.1c1.3-0.8,2.6-1.8,3.7-2.9
			c0.5,0.2,1,0.6,1.5,0.9v0.1c-2.5,2.4-5.2,4.1-8.1,5.4C70.8,454.5,68.1,455.3,65.3,455.5z M63.4,429h37.1l-31.6,5.1l-0.4,0
			L63.4,429z M63,391l5.1,31.6l0,0.4l-5.1,5.1V391z M43.4,410c0.3,0.5,0.6,1,0.9,1.5c-1.1,1.2-2.1,2.4-2.9,3.7l0.1,0.1l4.3,0.6
			l-2,3.2l-2.4-3.7c-2,3.2-3.2,6.7-3.7,10.4l-1.7,0.3C36.6,420,39,414.6,43.4,410L43.4,410z M58.7,411.2l-1,6.2l-5.3-3.1l-0.2-0.1
			C54.2,412.7,56.3,411.7,58.7,411.2z M51.2,413.6c-0.6-0.3-1.2-0.7-1.7-1c2.9-2.3,6.1-3.8,9.6-4.4l-0.3,1.9
			C56,410.7,53.5,411.9,51.2,413.6z M57.6,418c-0.2,1.5-0.5,3-0.7,4.5L45,410.6l12.4,7.3L57.6,418z M51.4,423.6l-6.2,1
			c0.5-2.4,1.5-4.6,3-6.5L51.4,423.6z M44.1,424.8L44.1,424.8l-1.9,0.4c0.6-3.6,2.1-6.8,4.4-9.6l1,1.6v0.1
			C45.9,419.5,44.7,422,44.1,424.8z M60.2,401.9c-0.1,0.6-0.2,1.2-0.3,1.8c-3.8,0.4-7.3,1.6-10.4,3.7l3.7,2.4l-3.2,2l-0.5-4.3
			l-0.1-0.1c-1.3,0.8-2.6,1.8-3.7,2.9c-0.5-0.3-1-0.6-1.6-0.9v-0.1C48.6,405,54,402.5,60.2,401.9z M57.4,434.9l0-0.4l5.1-5.1v37.1
			L57.4,434.9z M45.2,432.8L45.2,432.8l6.2,1l-3.1,5.3l-0.1,0.2C46.7,437.3,45.8,435.1,45.2,432.8z M47.6,440.2l-1,1.7
			c-2.3-2.9-3.8-6.1-4.4-9.6c0.7,0.1,1.2,0.2,1.9,0.3C44.7,435.4,45.9,437.9,47.6,440.2z M52,433.9c1.5,0.2,3,0.5,4.5,0.7
			l-11.8,11.8L52,433.9z M51.2,443.8c2.3,1.7,4.8,2.9,7.6,3.5l0.1,0.1l0.3,1.9c-3.6-0.6-6.8-2.1-9.6-4.4
			C50.1,444.5,50.6,444.2,51.2,443.8z M57.7,440l1,6.2c-2.4-0.5-4.6-1.5-6.5-3l0,0L57.7,440z M44,448c0.5-0.2,1-0.6,1.6-0.9
			c1.2,1.1,2.4,2.1,3.7,2.9l0.1-0.1l0.6-4.3l3.2,2l-3.7,2.4c3.2,2,6.7,3.2,10.4,3.7l0.3,1.7C54,454.9,48.6,452.4,44,448L44,448z
			 M35.9,431.3c0.6,0.1,1.2,0.2,1.8,0.3c0.4,3.8,1.6,7.3,3.7,10.4l2.4-3.7l2,3.2l-4.3,0.5l-0.1,0.1c0.8,1.3,1.8,2.6,2.9,3.8
			c-0.3,0.5-0.6,1-0.9,1.5h-0.1C39,442.8,36.6,437.4,35.9,431.3z M25,428.5l31.6-5.1l0.4,0l5.1,5.1H25z"/>
		<g>
			<path class="st8" d="M64,383.9c-0.1,0-0.1,0-0.2-0.1c0,0-0.1-0.1-0.1-0.1l-1.9-2.8v2.8c0,0.1,0,0.1-0.1,0.1c0,0-0.1,0.1-0.1,0.1
				H61c0,0-0.1,0-0.1-0.1c0,0-0.1-0.1-0.1-0.1v-4.4c0-0.1,0-0.1,0.1-0.1c0,0,0.1-0.1,0.1-0.1h0.5c0.1,0,0.1,0,0.2,0.1
				c0,0,0.1,0.1,0.1,0.1l1.9,2.8v-2.8c0-0.1,0-0.1,0.1-0.1c0,0,0.1-0.1,0.1-0.1h0.6c0,0,0.1,0,0.1,0.1c0,0,0.1,0.1,0.1,0.1v4.4
				c0,0.1,0,0.1-0.1,0.1c0,0-0.1,0.1-0.1,0.1H64z"/>
		</g>
		<g>
			<path class="st8" d="M62.7,473.4c0.3,0,0.6,0,0.8,0.1c0.2,0.1,0.4,0.2,0.6,0.3c0.2,0.1,0.3,0.3,0.4,0.4c0.1,0.1,0.1,0.3,0.1,0.4
				c0,0.1,0,0.1-0.1,0.1c0,0-0.1,0.1-0.1,0.1h-0.5c-0.1,0-0.1,0-0.2,0c0,0-0.1-0.1-0.1-0.1c-0.1-0.1-0.2-0.2-0.3-0.3
				c-0.1-0.1-0.3-0.1-0.6-0.1c-0.1,0-0.2,0-0.3,0c-0.1,0-0.2,0.1-0.3,0.1c-0.1,0-0.1,0.1-0.2,0.2c0,0.1-0.1,0.1-0.1,0.2
				c0,0.1,0,0.2,0.1,0.3c0,0.1,0.1,0.1,0.2,0.2c0.1,0,0.2,0.1,0.4,0.1c0.2,0,0.4,0.1,0.6,0.1c0.3,0.1,0.5,0.1,0.7,0.2
				c0.2,0.1,0.4,0.2,0.5,0.3c0.1,0.1,0.2,0.2,0.3,0.4c0.1,0.1,0.1,0.3,0.1,0.5c0,0.2,0,0.4-0.1,0.6c-0.1,0.2-0.2,0.3-0.4,0.5
				c-0.2,0.1-0.4,0.2-0.6,0.3c-0.2,0.1-0.5,0.1-0.8,0.1c-0.3,0-0.5,0-0.7-0.1c-0.2-0.1-0.4-0.2-0.6-0.3c-0.2-0.1-0.3-0.3-0.4-0.4
				c-0.1-0.2-0.2-0.3-0.2-0.5c0-0.1,0-0.1,0.1-0.1s0.1-0.1,0.1-0.1h0.5c0.1,0,0.1,0,0.2,0c0,0,0.1,0.1,0.1,0.1
				c0,0.1,0.1,0.1,0.1,0.2c0,0.1,0.1,0.1,0.2,0.2c0.1,0,0.2,0.1,0.3,0.1c0.1,0,0.3,0,0.4,0c0.1,0,0.3,0,0.4,0c0.1,0,0.2-0.1,0.3-0.1
				c0.1,0,0.2-0.1,0.2-0.2c0.1-0.1,0.1-0.2,0.1-0.3c0-0.1,0-0.2-0.1-0.2c-0.1-0.1-0.2-0.1-0.3-0.2c-0.1,0-0.3-0.1-0.5-0.1
				c-0.2,0-0.4-0.1-0.7-0.2c-0.2-0.1-0.4-0.1-0.6-0.2c-0.2-0.1-0.3-0.2-0.4-0.3c-0.1-0.1-0.2-0.2-0.3-0.4c-0.1-0.1-0.1-0.3-0.1-0.5
				c0-0.2,0-0.4,0.1-0.6c0.1-0.2,0.2-0.3,0.4-0.4c0.2-0.1,0.4-0.2,0.6-0.3C62.2,473.5,62.4,473.4,62.7,473.4z"/>
		</g>
		<g>
			<g>
				<path class="st8" d="M111.1,430.3c0,0,0.1,0,0.1,0.1c0,0,0.1,0.1,0.1,0.1v0.5c0,0,0,0.1-0.1,0.1c0,0-0.1,0.1-0.1,0.1h-3
					c-0.1,0-0.1,0-0.1-0.1c0,0-0.1-0.1-0.1-0.1v-4.4c0,0,0-0.1,0.1-0.1c0,0,0.1-0.1,0.1-0.1h3c0.1,0,0.1,0,0.1,0.1
					c0,0,0.1,0.1,0.1,0.1v0.5c0,0.1,0,0.1-0.1,0.1c0,0-0.1,0.1-0.1,0.1h-2.2v1.1h2.1c0.1,0,0.1,0,0.1,0.1c0,0,0.1,0.1,0.1,0.1v0.5
					c0,0.1,0,0.1-0.1,0.1c0,0-0.1,0.1-0.1,0.1h-2.1v1.1H111.1z"/>
			</g>
			<g>
				<path class="st8" d="M16.7,428.8l-0.6,2c0,0.1-0.1,0.1-0.1,0.2c0,0-0.1,0.1-0.2,0.1h-0.6c-0.1,0-0.1,0-0.2-0.1
					c0,0-0.1-0.1-0.1-0.2l-0.9-4.3c0,0,0,0,0-0.1c0,0,0-0.1,0.1-0.1c0,0,0.1-0.1,0.1-0.1h0.5c0,0,0.1,0,0.1,0c0,0,0.1,0.1,0.1,0.1
					l0.6,2.9l0.5-1.8c0,0,0-0.1,0.1-0.1c0-0.1,0.1-0.1,0.2-0.1H17c0.1,0,0.1,0,0.2,0.1c0,0.1,0.1,0.1,0.1,0.1l0.5,1.8l0.6-2.9
					c0-0.1,0-0.1,0.1-0.1c0,0,0.1,0,0.1,0H19c0.1,0,0.1,0,0.1,0.1c0,0,0.1,0.1,0.1,0.1c0,0,0,0,0,0.1l-0.9,4.3c0,0.1,0,0.1-0.1,0.2
					c0,0-0.1,0.1-0.2,0.1h-0.6c-0.1,0-0.1,0-0.2-0.1c0,0-0.1-0.1-0.1-0.2L16.7,428.8z"/>
			</g>
		</g>
		<g>
			<path class="st8" d="M33.1,426.7c1-14.7,12.8-26.6,27.6-27.6l0.5-2.8c-16.6,0.8-30,14.2-30.8,30.9L33.1,426.7z"/>
			<path class="st8" d="M64.8,399.1c14.7,1,26.6,12.8,27.6,27.6l2.8,0.5c-0.8-16.6-14.2-30-30.9-30.8L64.8,399.1z"/>
			<path class="st8" d="M92.4,430.8c-1,14.7-12.8,26.6-27.6,27.6l-0.5,2.8c16.6-0.8,30-14.2,30.8-30.9L92.4,430.8z"/>
			<path class="st8" d="M60.7,458.4c-14.7-1-26.6-12.8-27.6-27.6l-2.8-0.5c0.8,16.6,14.2,30,30.9,30.8L60.7,458.4z"/>
		</g>
	</g>
	<circle class="st4" cx="338.6" cy="273.4" r="6.9"/>
	<circle class="st4" cx="386.1" cy="266.4" r="6.9"/>
	<circle class="st4" cx="400" cy="320.4" r="6.9"/>
	<circle class="st4" cx="410.8" cy="366.3" r="6.9"/>
	<circle class="st4" cx="415.3" cy="403.2" r="6.9"/>
	<circle class="st4" cx="372.7" cy="413.9" r="6.9"/>
	<circle class="st4" cx="342.4" cy="420.8" r="6.9"/>
	<circle class="st4" cx="304.6" cy="429.4" r="6.9"/>
	<line class="st4" x1="219" y1="343.7" x2="224.8" y2="370"/>
	<line class="st4" x1="249.3" y1="336.7" x2="255.1" y2="363.1"/>
	<line class="st4" x1="250.3" y1="329.2" x2="278.8" y2="322.9"/>
	<line class="st4" x1="242.6" y1="296.5" x2="271.1" y2="290.2"/>
	<line class="st4" x1="235.6" y1="265.5" x2="263.5" y2="259.4"/>
	<line class="st4" x1="225.4" y1="216.7" x2="252.4" y2="210.5"/>
	<line class="st4" x1="176.9" y1="189.7" x2="183.2" y2="218"/>
	<line class="st4" x1="208.5" y1="183.3" x2="214.8" y2="211.7"/>
	<line class="st4" x1="252.4" y1="173.5" x2="258.7" y2="201.8"/>
	<line class="st4" x1="283.7" y1="166.7" x2="289.9" y2="195"/>
	<g>
		<g>
			<path class="st8" d="M338.4,277.2V271h-1.2l0.4-0.7h1.5v6.9H338.4z"/>
		</g>
	</g>
	<g>
		<g>
			<path class="st8" d="M388.1,270.3h-4.4l2.5-2.9c0.4-0.5,0.7-0.8,0.8-1c0.3-0.4,0.4-0.7,0.4-1.1c0-0.4-0.1-0.7-0.4-1
				s-0.6-0.4-1-0.4c-0.5,0-0.9,0.2-1.1,0.6c-0.1,0.2-0.2,0.5-0.2,0.8h-0.8c0-0.6,0.2-1.1,0.5-1.4c0.4-0.5,1-0.7,1.6-0.7
				c0.6,0,1.1,0.2,1.5,0.6s0.6,0.9,0.6,1.5c0,0.5-0.2,1-0.5,1.5c-0.2,0.3-0.5,0.6-0.9,1.1l-1.4,1.6h2.9V270.3z"/>
		</g>
	</g>
	<g>
		<g>
			<path class="st8" d="M398.7,319.1H398c0-0.4,0.1-0.7,0.3-1c0.3-0.5,0.9-0.8,1.6-0.8c0.6,0,1.1,0.2,1.4,0.5s0.5,0.8,0.5,1.3
				c0,0.7-0.3,1.2-0.9,1.5c0.1,0,0.2,0.1,0.3,0.1s0.2,0.1,0.3,0.3s0.2,0.3,0.3,0.5c0.1,0.2,0.1,0.5,0.1,0.7c0,0.6-0.2,1.1-0.6,1.5
				s-0.9,0.6-1.5,0.6c-0.4,0-0.8-0.1-1.1-0.3c-0.4-0.2-0.6-0.5-0.8-0.9c-0.1-0.2-0.1-0.5-0.2-0.7h0.8c0,0.3,0.1,0.5,0.2,0.7
				c0.2,0.3,0.6,0.5,1.1,0.5c0.4,0,0.7-0.1,1-0.4c0.3-0.3,0.4-0.6,0.4-1c0-0.6-0.2-0.9-0.7-1.2c-0.2-0.1-0.5-0.2-0.8-0.1v-0.7
				c0.3,0,0.6,0,0.8-0.1c0.4-0.2,0.6-0.5,0.6-1c0-0.3-0.1-0.6-0.3-0.8s-0.5-0.3-0.9-0.3c-0.4,0-0.7,0.1-0.9,0.4
				C398.8,318.6,398.7,318.8,398.7,319.1z"/>
		</g>
	</g>
	<g>
		<g>
			<path class="st8" d="M412.4,362.9v5.4h0.8v0.7h-0.8v1.1h-0.8V369h-3.5L412.4,362.9z M409.4,368.3h2.2v-3.1L409.4,368.3z"/>
		</g>
	</g>
	<g>
		<g>
			<path class="st8" d="M417.3,400.1v0.7h-2.2l-0.4,1.5c0.1,0,0.3,0,0.4,0c0.7,0,1.2,0.2,1.6,0.7c0.4,0.5,0.6,1,0.6,1.7
				c0,0.7-0.2,1.3-0.7,1.8c-0.5,0.5-1.1,0.7-1.8,0.7c-0.6,0-1.1-0.2-1.5-0.5c-0.2-0.2-0.4-0.4-0.6-0.7l0.6-0.4
				c0.1,0.2,0.3,0.4,0.5,0.6c0.3,0.3,0.7,0.4,1.1,0.4c0.5,0,0.9-0.2,1.2-0.5c0.3-0.3,0.5-0.8,0.5-1.2c0-0.5-0.2-0.9-0.5-1.2
				s-0.7-0.5-1.2-0.5c-0.4,0-0.9,0.2-1.3,0.5l1-3.3H417.3z"/>
		</g>
	</g>
	<g>
		<g>
			<path class="st8" d="M373.2,410.6l0.6,0.4l-1.6,2.2c0.2-0.1,0.4-0.1,0.6-0.1c0.7,0,1.2,0.2,1.6,0.6s0.6,1,0.6,1.6
				c0,0.7-0.2,1.3-0.7,1.7c-0.4,0.4-1,0.7-1.7,0.7c-0.5,0-1-0.1-1.3-0.4c-0.4-0.2-0.6-0.5-0.8-0.9c-0.2-0.3-0.2-0.7-0.2-1.1
				c0-0.5,0.2-1,0.6-1.6L373.2,410.6z M372.7,417.1c0.5,0,0.9-0.2,1.2-0.5c0.3-0.3,0.5-0.7,0.5-1.2c0-0.5-0.2-0.8-0.5-1.1
				s-0.7-0.4-1.2-0.4c-0.5,0-0.9,0.2-1.1,0.5c-0.3,0.3-0.4,0.7-0.4,1.1c0,0.5,0.1,0.9,0.4,1.2C371.8,416.9,372.2,417.1,372.7,417.1z
				"/>
		</g>
	</g>
	<g>
		<g>
			<path class="st8" d="M340,424.5l3.9-5.9h-3.8v-0.7h5.1l-4.6,7L340,424.5z"/>
		</g>
	</g>
	<g>
		<path class="st8" d="M305.7,429.5c0.7,0.3,1,0.9,1,1.7c0,0.6-0.2,1-0.6,1.4s-0.9,0.6-1.6,0.6s-1.2-0.2-1.6-0.6
			c-0.4-0.4-0.6-0.9-0.6-1.4c0-0.8,0.3-1.4,1-1.7c-0.6-0.3-0.8-0.8-0.8-1.5c0-0.5,0.2-1,0.5-1.3s0.8-0.6,1.4-0.6s1.1,0.2,1.4,0.6
			c0.3,0.4,0.5,0.8,0.5,1.3C306.5,428.7,306.2,429.2,305.7,429.5z M303.6,432.1c0.2,0.3,0.6,0.4,1,0.4s0.7-0.1,1-0.4s0.4-0.6,0.4-1
			c0-0.4-0.1-0.7-0.4-0.9s-0.6-0.4-1-0.4s-0.7,0.1-1,0.4s-0.4,0.6-0.4,0.9C303.3,431.6,303.4,431.9,303.6,432.1z M303.8,428.9
			c0.2,0.2,0.5,0.3,0.8,0.3s0.6-0.1,0.8-0.3c0.2-0.2,0.3-0.5,0.3-0.8c0-0.4-0.1-0.7-0.3-0.9s-0.5-0.3-0.8-0.3s-0.6,0.1-0.8,0.3
			c-0.2,0.2-0.3,0.5-0.3,0.9C303.4,428.4,303.5,428.6,303.8,428.9z"/>
	</g>
	<g>
		<circle class="st4" cx="163.2" cy="208.8" r="6.9"/>
		<g>
			<g>
				<path class="st8" d="M163,212.6v-6.2h-1.2l0.4-0.7h1.5v6.9H163z"/>
			</g>
		</g>
	</g>
	<circle class="st4" cx="195.8" cy="201.1" r="6.9"/>
	<g>
		<g>
			<path class="st8" d="M197.9,204.9h-4.4l2.5-2.9c0.4-0.5,0.7-0.8,0.8-1c0.3-0.4,0.4-0.7,0.4-1.1c0-0.4-0.1-0.7-0.4-1
				s-0.6-0.4-1-0.4c-0.5,0-0.9,0.2-1.1,0.6c-0.1,0.2-0.2,0.5-0.2,0.8h-0.8c0-0.6,0.2-1.1,0.5-1.4c0.4-0.5,1-0.7,1.6-0.7
				c0.6,0,1.1,0.2,1.5,0.6s0.6,0.9,0.6,1.5c0,0.5-0.2,1-0.5,1.5c-0.2,0.3-0.5,0.6-0.9,1.1l-1.4,1.6h2.9V204.9z"/>
		</g>
	</g>
	<circle class="st4" cx="233.6" cy="194" r="6.9"/>
	<g>
		<g>
			<path class="st8" d="M232.3,192.6h-0.8c0-0.4,0.1-0.7,0.3-1c0.3-0.5,0.9-0.8,1.6-0.8c0.6,0,1.1,0.2,1.4,0.5s0.5,0.8,0.5,1.3
				c0,0.7-0.3,1.2-0.9,1.5c0.1,0,0.2,0.1,0.3,0.1s0.2,0.1,0.3,0.3s0.2,0.3,0.3,0.5c0.1,0.2,0.1,0.5,0.1,0.7c0,0.6-0.2,1.1-0.6,1.5
				s-0.9,0.6-1.5,0.6c-0.4,0-0.8-0.1-1.1-0.3c-0.4-0.2-0.6-0.5-0.8-0.9c-0.1-0.2-0.1-0.5-0.2-0.7h0.8c0,0.3,0.1,0.5,0.2,0.7
				c0.2,0.3,0.6,0.5,1.1,0.5c0.4,0,0.7-0.1,1-0.4c0.3-0.3,0.4-0.6,0.4-1c0-0.6-0.2-0.9-0.7-1.2c-0.2-0.1-0.5-0.2-0.8-0.1v-0.7
				c0.3,0,0.6,0,0.8-0.1c0.4-0.2,0.6-0.5,0.6-1c0-0.3-0.1-0.6-0.3-0.8s-0.5-0.3-0.9-0.3c-0.4,0-0.7,0.1-0.9,0.4
				C232.4,192.1,232.3,192.3,232.3,192.6z"/>
		</g>
	</g>
	<circle class="st4" cx="271.1" cy="184.3" r="6.9"/>
	<g>
		<g>
			<path class="st8" d="M272.7,180.8v5.4h0.8v0.7h-0.8v1.1h-0.8V187h-3.5L272.7,180.8z M269.8,186.3h2.2v-3.1L269.8,186.3z"/>
		</g>
	</g>
	<circle class="st4" cx="306.7" cy="176.4" r="6.9"/>
	<g>
		<g>
			<path class="st8" d="M308.7,173.3v0.7h-2.2l-0.4,1.5c0.1,0,0.3,0,0.4,0c0.7,0,1.2,0.2,1.6,0.7c0.4,0.5,0.6,1,0.6,1.7
				c0,0.7-0.2,1.3-0.7,1.8c-0.5,0.5-1.1,0.7-1.8,0.7c-0.6,0-1.1-0.2-1.5-0.5c-0.2-0.2-0.4-0.4-0.6-0.7l0.6-0.4
				c0.1,0.2,0.3,0.4,0.5,0.6c0.3,0.3,0.7,0.4,1.1,0.4c0.5,0,0.9-0.2,1.2-0.5c0.3-0.3,0.5-0.8,0.5-1.2c0-0.5-0.2-0.9-0.5-1.2
				s-0.7-0.5-1.2-0.5c-0.4,0-0.9,0.2-1.3,0.5l1-3.3H308.7z"/>
		</g>
	</g>
	<circle class="st4" cx="245.2" cy="238" r="6.9"/>
	<g>
		<g>
			<path class="st8" d="M245.8,234.8l0.6,0.4l-1.6,2.2c0.2-0.1,0.4-0.1,0.6-0.1c0.7,0,1.2,0.2,1.6,0.6s0.6,1,0.6,1.6
				c0,0.7-0.2,1.3-0.7,1.7c-0.4,0.4-1,0.7-1.7,0.7c-0.5,0-1-0.1-1.3-0.4c-0.4-0.2-0.6-0.5-0.8-0.9c-0.2-0.3-0.2-0.7-0.2-1.1
				c0-0.5,0.2-1,0.6-1.6L245.8,234.8z M245.2,241.2c0.5,0,0.9-0.2,1.2-0.5c0.3-0.3,0.5-0.7,0.5-1.2c0-0.5-0.2-0.8-0.5-1.1
				s-0.7-0.4-1.2-0.4c-0.5,0-0.9,0.2-1.1,0.5c-0.3,0.3-0.4,0.7-0.4,1.1c0,0.5,0.1,0.9,0.4,1.2C244.4,241.1,244.7,241.2,245.2,241.2z
				"/>
		</g>
	</g>
	<circle class="st4" cx="253.5" cy="277.9" r="6.9"/>
	<g>
		<g>
			<path class="st8" d="M251.1,281.4l3.9-5.9h-3.8v-0.7h5.1l-4.6,7L251.1,281.4z"/>
		</g>
	</g>
	<circle class="st4" cx="260.5" cy="311.2" r="6.9"/>
	<g>
		<g>
			<path class="st8" d="M261.5,311.5c0.7,0.3,1,0.9,1,1.7c0,0.6-0.2,1-0.6,1.4s-0.9,0.6-1.6,0.6s-1.2-0.2-1.6-0.6
				c-0.4-0.4-0.6-0.9-0.6-1.4c0-0.8,0.3-1.4,1-1.7c-0.6-0.3-0.8-0.8-0.8-1.5c0-0.5,0.2-1,0.5-1.3s0.8-0.6,1.4-0.6s1.1,0.2,1.4,0.6
				c0.3,0.4,0.5,0.8,0.5,1.3C262.4,310.6,262.1,311.1,261.5,311.5z M259.5,314.1c0.2,0.3,0.6,0.4,1,0.4s0.7-0.1,1-0.4s0.4-0.6,0.4-1
				c0-0.4-0.1-0.7-0.4-0.9s-0.6-0.4-1-0.4s-0.7,0.1-1,0.4s-0.4,0.6-0.4,0.9C259.1,313.5,259.2,313.8,259.5,314.1z M259.6,310.8
				c0.2,0.2,0.5,0.3,0.8,0.3s0.6-0.1,0.8-0.3c0.2-0.2,0.3-0.5,0.3-0.8c0-0.4-0.1-0.7-0.3-0.9s-0.5-0.3-0.8-0.3s-0.6,0.1-0.8,0.3
				c-0.2,0.2-0.3,0.5-0.3,0.9C259.3,310.3,259.4,310.6,259.6,310.8z"/>
		</g>
	</g>
	<circle class="st4" cx="267.4" cy="346.2" r="6.9"/>
	<g>
		<g>
			<path class="st8" d="M266.9,350.1l-0.6-0.4l1.6-2.2c-0.2,0.1-0.4,0.1-0.6,0.1c-0.7,0-1.2-0.2-1.6-0.6c-0.4-0.4-0.6-1-0.6-1.6
				c0-0.7,0.2-1.3,0.7-1.7c0.4-0.4,1-0.7,1.7-0.7c0.5,0,1,0.1,1.3,0.4c0.4,0.2,0.6,0.5,0.8,0.9c0.2,0.3,0.2,0.7,0.2,1.1
				c0,0.5-0.2,1.1-0.6,1.6L266.9,350.1z M267.4,343.7c-0.5,0-0.9,0.2-1.2,0.5s-0.5,0.7-0.5,1.2c0,0.5,0.2,0.8,0.5,1.1
				c0.3,0.3,0.7,0.4,1.2,0.4s0.9-0.2,1.1-0.5c0.3-0.3,0.4-0.7,0.4-1.1c0-0.5-0.1-0.9-0.4-1.2C268.3,343.8,267.9,343.7,267.4,343.7z"
				/>
		</g>
	</g>
	<circle class="st4" cx="237" cy="354.1" r="6.9"/>
	<g>
		<g>
			<path class="st8" d="M233.9,357.9v-6.2h-1.2l0.4-0.7h1.5v6.9H233.9z"/>
			<path class="st8" d="M240,358c-0.7,0-1.3-0.3-1.8-1c-0.5-0.7-0.7-1.5-0.7-2.5s0.2-1.9,0.7-2.5c0.5-0.7,1.1-1,1.8-1s1.3,0.3,1.8,1
				c0.5,0.7,0.7,1.5,0.7,2.5s-0.2,1.9-0.7,2.5C241.2,357.6,240.7,358,240,358z M240,351.6c-0.5,0-0.9,0.3-1.2,0.8
				c-0.3,0.5-0.5,1.2-0.5,2.1s0.2,1.6,0.5,2.1c0.3,0.5,0.7,0.8,1.2,0.8s0.9-0.3,1.2-0.8c0.3-0.5,0.5-1.2,0.5-2.1s-0.2-1.6-0.5-2.1
				C240.8,351.8,240.4,351.6,240,351.6z"/>
		</g>
	</g>
	<circle class="st4" cx="201.6" cy="362" r="6.9"/>
	<g>
		<g>
			<path class="st8" d="M198.5,365.8v-6.2h-1.2l0.4-0.7h1.5v6.9H198.5z"/>
			<path class="st8" d="M204.3,365.8v-6.2h-1.2l0.4-0.7h1.5v6.9H204.3z"/>
		</g>
	</g>
	
		<rect x="321.6" y="369.7" transform="matrix(0.977 -0.2134 0.2134 0.977 -73.6827 84.9412)" class="st7" width="70.1" height="28.2"/>
	<g>
		<path class="st9" d="M334.3,386.3l-1.3-6l-1.1,0.2l0.2-0.8l1.5-0.3l1.5,6.7L334.3,386.3z"/>
		<path class="st9" d="M337.4,383.7l-0.2-0.7l2.2-0.5l0.2,0.7L337.4,383.7z"/>
		<path class="st9" d="M340.6,384.9l0.9-2c0,0-0.1,0-0.2,0c-0.1,0-0.2,0-0.3,0c-0.1,0-0.3-0.1-0.4-0.1c-0.3-0.2-0.4-0.4-0.5-0.8
			c-0.1-0.4,0-0.7,0.2-1c0.2-0.3,0.6-0.5,1.2-0.6l1.5-0.3l0.9,4.2l-0.7,0.2l-0.4-1.7l-0.4,0.1l-0.8,2L340.6,384.9z M342.6,382
			l-0.3-1.3l-0.7,0.1c-0.3,0.1-0.5,0.2-0.6,0.3c-0.1,0.2-0.2,0.3-0.2,0.6c0.1,0.2,0.2,0.4,0.4,0.4c0.1,0.1,0.4,0,0.7,0L342.6,382z"
			/>
		<path class="st9" d="M351,382.1c-0.3,0.5-0.8,0.8-1.5,1c-0.6,0.1-1.2,0-1.7-0.3c-0.5-0.3-0.8-0.8-1-1.4c-0.1-0.6,0-1.2,0.3-1.7
			c0.3-0.5,0.8-0.8,1.5-1c0.6-0.1,1.2,0,1.7,0.3c0.5,0.3,0.8,0.8,1,1.4C351.5,381,351.4,381.6,351,382.1z M349.9,379.5
			c-0.3-0.2-0.7-0.3-1.1-0.2s-0.7,0.3-1,0.6c-0.2,0.3-0.3,0.8-0.2,1.2c0.1,0.5,0.3,0.8,0.7,1s0.7,0.3,1.1,0.2c0.4-0.1,0.7-0.3,1-0.6
			s0.3-0.8,0.2-1.2C350.5,380,350.3,379.7,349.9,379.5z"/>
		<path class="st9" d="M355.1,381.7l-0.4-1.6c-0.4,0.1-0.7,0.3-1,0.3c-0.5,0.1-0.8,0.1-1.1-0.1c-0.3-0.2-0.5-0.5-0.6-1l-0.3-1.3
			l0.7-0.2l0.3,1.2c0.1,0.2,0.1,0.4,0.2,0.5c0.1,0.2,0.4,0.2,0.7,0.1c0.3-0.1,0.6-0.2,0.9-0.3l-0.4-1.9l0.7-0.2l0.9,4.2L355.1,381.7
			z"/>
		<path class="st9" d="M360.1,379.2l0.7,0.2c-0.1,0.3-0.2,0.6-0.4,0.8c-0.3,0.4-0.7,0.7-1.3,0.8c-0.6,0.1-1.1,0-1.6-0.2
			c-0.5-0.3-0.8-0.8-1-1.5c-0.1-0.6-0.1-1.2,0.2-1.7s0.7-0.8,1.3-1c0.7-0.2,1.3,0,1.8,0.4c0.4,0.3,0.6,0.8,0.7,1.5l-3.3,0.7
			c0.1,0.4,0.3,0.7,0.6,0.9c0.3,0.2,0.7,0.3,1,0.2c0.3-0.1,0.6-0.2,0.8-0.5C359.9,379.6,360,379.4,360.1,379.2z M357.2,378.6
			l2.5-0.5c-0.1-0.3-0.3-0.6-0.6-0.7c-0.3-0.2-0.6-0.2-0.9-0.1c-0.3,0.1-0.5,0.2-0.7,0.5C357.3,378,357.2,378.2,357.2,378.6z"/>
		<path class="st9" d="M362.7,379.4l0.6,3l-0.7,0.2l-1.4-6.6l0.7-0.2l0.1,0.6c0.3-0.5,0.7-0.9,1.3-1c0.6-0.1,1.2,0,1.6,0.3
			c0.5,0.4,0.8,0.8,0.9,1.4c0.1,0.6,0.1,1.2-0.2,1.7c-0.3,0.5-0.7,0.8-1.3,1C363.7,380,363.2,379.8,362.7,379.4z M364.1,379.2
			c0.4-0.1,0.7-0.3,0.9-0.7c0.2-0.4,0.2-0.7,0.1-1.2c-0.1-0.5-0.3-0.8-0.7-1.1s-0.7-0.3-1.1-0.2s-0.7,0.3-0.9,0.6
			c-0.2,0.3-0.3,0.8-0.2,1.2c0.1,0.4,0.3,0.8,0.6,1C363.3,379.2,363.7,379.3,364.1,379.2z"/>
		<path class="st9" d="M370.3,376.9l0.7,0.2c-0.1,0.3-0.2,0.6-0.4,0.8c-0.3,0.4-0.7,0.7-1.3,0.8c-0.6,0.1-1.1,0-1.6-0.2
			c-0.5-0.3-0.8-0.8-1-1.5c-0.1-0.6-0.1-1.2,0.2-1.7c0.3-0.5,0.7-0.8,1.3-1c0.7-0.2,1.3,0,1.8,0.4c0.4,0.3,0.6,0.8,0.7,1.5l-3.3,0.7
			c0.1,0.4,0.3,0.7,0.6,0.9c0.3,0.2,0.7,0.3,1,0.2c0.3-0.1,0.6-0.2,0.8-0.5C370.1,377.4,370.2,377.2,370.3,376.9z M367.4,376.4
			l2.5-0.5c-0.1-0.3-0.3-0.6-0.6-0.7s-0.6-0.2-0.9-0.1c-0.3,0.1-0.5,0.2-0.7,0.5C367.5,375.7,367.4,376,367.4,376.4z"/>
		<path class="st9" d="M371.7,373.7l3-0.6l0.8,3.5l0.6-0.1l0.4,1.8l-0.7,0.1l-0.2-1.1l-3.2,0.7l0.2,1.1l-0.7,0.1l-0.4-1.8
			c0.3-0.1,0.6-0.3,0.7-0.7c0.1-0.3,0-0.6-0.1-1.1L371.7,373.7z M374.7,376.7l-0.6-2.9l-1.5,0.3l0.3,1.6c0.1,0.6,0,1-0.2,1.4
			L374.7,376.7z"/>
		<path class="st9" d="M377,377l-0.9-4.2l0.7-0.2l0.4,1.6l0.7-0.2c0.6-0.1,1-0.1,1.4,0.1c0.3,0.2,0.4,0.4,0.5,0.8
			c0.1,0.4,0,0.7-0.2,1c-0.2,0.3-0.6,0.5-1.2,0.6L377,377z M377.5,376.1l0.7-0.1c0.3-0.1,0.5-0.2,0.6-0.3c0.2-0.2,0.2-0.4,0.2-0.6
			c-0.1-0.2-0.2-0.4-0.4-0.5c-0.1-0.1-0.4,0-0.7,0l-0.7,0.2L377.5,376.1z"/>
		<path class="st9" d="M332,392.1l0.2,0.9c-0.4-0.3-0.9-0.5-1.5-0.3c-0.4,0.1-0.7,0.3-1,0.6c-0.2,0.3-0.3,0.8-0.2,1.2
			c0.1,0.5,0.3,0.8,0.7,1c0.4,0.2,0.7,0.3,1.1,0.2c0.5-0.1,0.9-0.4,1.2-1l0.2,0.9c-0.3,0.4-0.7,0.6-1.2,0.7
			c-0.7,0.1-1.2,0.1-1.8-0.3c-0.5-0.3-0.8-0.8-1-1.4c-0.1-0.6,0-1.2,0.3-1.7c0.3-0.5,0.8-0.8,1.5-1
			C331.1,391.9,331.5,391.9,332,392.1z"/>
		<path class="st9" d="M336,391.6l-1.3,0.3l0.8,3.5l-0.7,0.2l-0.8-3.5l-1.3,0.3l-0.1-0.7l3.4-0.7L336,391.6z"/>
		<path class="st9" d="M338.1,394.2l0.6,3l-0.7,0.2l-1.4-6.6l0.7-0.2l0.1,0.6c0.3-0.5,0.7-0.9,1.3-1c0.6-0.1,1.2,0,1.6,0.3
			s0.8,0.8,0.9,1.4c0.1,0.6,0.1,1.2-0.2,1.7c-0.3,0.5-0.7,0.8-1.3,1C339.1,394.8,338.6,394.6,338.1,394.2z M339.5,394
			c0.4-0.1,0.7-0.3,0.9-0.7c0.2-0.4,0.2-0.7,0.1-1.2c-0.1-0.5-0.3-0.8-0.7-1.1c-0.3-0.2-0.7-0.3-1.1-0.2c-0.4,0.1-0.7,0.3-0.9,0.6
			c-0.2,0.3-0.3,0.8-0.2,1.2c0.1,0.4,0.3,0.8,0.6,1C338.7,394,339.1,394.1,339.5,394z"/>
		<path class="st9" d="M346.3,392.5c-0.3,0.5-0.8,0.8-1.5,1c-0.6,0.1-1.2,0-1.7-0.3c-0.5-0.3-0.8-0.8-1-1.4c-0.1-0.6,0-1.2,0.3-1.7
			c0.3-0.5,0.8-0.8,1.5-1c0.6-0.1,1.2,0,1.7,0.3c0.5,0.3,0.8,0.8,1,1.5C346.7,391.5,346.6,392,346.3,392.5z M345.1,389.9
			c-0.3-0.2-0.7-0.3-1.1-0.2c-0.4,0.1-0.7,0.3-1,0.6c-0.2,0.3-0.3,0.8-0.2,1.2c0.1,0.5,0.3,0.8,0.7,1c0.4,0.2,0.7,0.3,1.1,0.2
			c0.4-0.1,0.7-0.3,1-0.6c0.2-0.3,0.3-0.8,0.2-1.2C345.7,390.5,345.5,390.1,345.1,389.9z"/>
		<path class="st9" d="M347.2,388.5l0.7-0.2l0.6,2.8l2.2-3.7l1,4.5L351,392l-0.6-2.8l-2.2,3.7L347.2,388.5z"/>
		<path class="st9" d="M355.1,387.4l-1.3,0.3l0.8,3.5l-0.7,0.2l-0.8-3.5l-1.3,0.3l-0.1-0.7l3.4-0.7L355.1,387.4z"/>
		<path class="st9" d="M359.4,388.7l0.7,0.2c-0.1,0.3-0.2,0.6-0.4,0.8c-0.3,0.4-0.7,0.7-1.3,0.8c-0.6,0.1-1.1,0-1.6-0.2
			c-0.5-0.3-0.8-0.8-1-1.5c-0.1-0.6-0.1-1.2,0.2-1.7c0.3-0.5,0.7-0.8,1.3-1c0.7-0.2,1.3,0,1.8,0.4c0.4,0.3,0.6,0.8,0.7,1.5l-3.3,0.7
			c0.1,0.4,0.3,0.7,0.6,0.9s0.7,0.3,1,0.2c0.3-0.1,0.6-0.2,0.8-0.5C359.3,389.2,359.4,389,359.4,388.7z M356.6,388.1l2.5-0.5
			c-0.1-0.3-0.3-0.6-0.6-0.7c-0.3-0.2-0.6-0.2-0.9-0.1c-0.3,0.1-0.5,0.2-0.7,0.5C356.7,387.5,356.6,387.8,356.6,388.1z"/>
		<path class="st9" d="M363.8,384.9l0.9,4.2l-0.7,0.2l-0.8-3.5l-1.5,0.3l0.4,1.9c0.1,0.5,0.1,1-0.1,1.3c-0.2,0.3-0.5,0.6-0.9,0.7
			c-0.1,0-0.1,0-0.2,0l-0.1-0.7c0.1,0,0.1,0,0.2,0c0.2-0.1,0.4-0.2,0.5-0.4c0.1-0.2,0.1-0.4,0-0.7l-0.6-2.6L363.8,384.9z"/>
		<path class="st9" d="M366,388.8l-0.9-4.2l0.7-0.2l0.4,1.6l0.7-0.2c0.6-0.1,1-0.1,1.4,0.1c0.3,0.2,0.4,0.4,0.5,0.8
			c0.1,0.4,0,0.7-0.2,1c-0.2,0.3-0.6,0.5-1.2,0.6L366,388.8z M366.6,387.9l0.7-0.1c0.3-0.1,0.5-0.2,0.6-0.3c0.2-0.2,0.2-0.4,0.2-0.6
			c-0.1-0.2-0.2-0.4-0.4-0.5c-0.1-0.1-0.4,0-0.7,0l-0.7,0.2L366.6,387.9z"/>
		<path class="st9" d="M372.5,383.3l0.2,0.9c-0.4-0.3-0.9-0.5-1.5-0.3c-0.4,0.1-0.7,0.3-1,0.6c-0.2,0.3-0.3,0.8-0.2,1.2
			c0.1,0.5,0.3,0.8,0.7,1s0.7,0.3,1.1,0.2c0.5-0.1,0.9-0.4,1.2-1l0.2,0.9c-0.3,0.4-0.7,0.6-1.2,0.7c-0.7,0.1-1.2,0.1-1.7-0.3
			c-0.5-0.3-0.8-0.8-1-1.4c-0.1-0.6,0-1.2,0.3-1.7s0.8-0.8,1.5-1C371.6,383,372.1,383.1,372.5,383.3z"/>
		<path class="st9" d="M376.5,382.8l-1.3,0.3l0.8,3.5l-0.7,0.2l-0.8-3.5l-1.3,0.3l-0.1-0.7l3.4-0.7L376.5,382.8z"/>
		<path class="st9" d="M377.1,381.9l1.6-0.3c0.4-0.1,0.7-0.1,0.9,0.1c0.3,0.1,0.5,0.4,0.5,0.7c0.1,0.4,0,0.7-0.3,0.9
			c0.2,0,0.4,0.1,0.6,0.2c0.3,0.2,0.4,0.4,0.5,0.7c0.1,0.4,0,0.8-0.2,1c-0.2,0.2-0.5,0.4-0.9,0.5l-1.8,0.4L377.1,381.9z
			 M378.2,383.5l0.8-0.2c0.2,0,0.3-0.1,0.4-0.2c0.1-0.1,0.1-0.3,0.1-0.5c0-0.2-0.1-0.3-0.3-0.4c-0.1,0-0.3,0-0.6,0l-0.6,0.1
			L378.2,383.5z M378.6,385.3l0.9-0.2c0.3-0.1,0.5-0.2,0.6-0.3c0.1-0.2,0.2-0.3,0.1-0.5c0-0.2-0.1-0.3-0.3-0.4
			c-0.1-0.1-0.4-0.1-0.7,0l-0.9,0.2L378.6,385.3z"/>
		<path class="st9" d="M384.8,380.9l-0.1-0.6l0.7-0.2l0.9,4.2l-0.7,0.2l-0.1-0.6c-0.3,0.6-0.7,0.9-1.3,1c-0.6,0.1-1.1,0-1.6-0.3
			c-0.5-0.3-0.8-0.8-1-1.5c-0.2-0.7-0.1-1.3,0.2-1.7s0.8-0.8,1.3-0.9C383.8,380.4,384.4,380.5,384.8,380.9z M383.5,381.1
			c-0.4,0.1-0.7,0.3-0.9,0.6c-0.2,0.3-0.3,0.7-0.2,1.2c0.1,0.5,0.3,0.8,0.6,1.1c0.3,0.2,0.7,0.3,1.1,0.2c0.4-0.1,0.7-0.3,0.9-0.7
			c0.2-0.4,0.2-0.8,0.1-1.2c-0.1-0.5-0.3-0.9-0.7-1.1C384.2,381.1,383.8,381,383.5,381.1z"/>
	</g>
	
		<rect x="173.5" y="311.9" transform="matrix(0.977 -0.2134 0.2134 0.977 -64.7563 51.995)" class="st7" width="70.1" height="28.2"/>
	<g>
		<path class="st9" d="M188.3,328l-4.4,1l1.8-3.4c0.3-0.6,0.5-1,0.6-1.2c0.2-0.4,0.2-0.8,0.1-1.1c-0.1-0.4-0.3-0.7-0.6-0.9
			c-0.3-0.2-0.7-0.2-1.1-0.2c-0.5,0.1-0.8,0.4-1,0.8c-0.1,0.2-0.1,0.5,0,0.8l-0.7,0.2c-0.1-0.6,0-1.1,0.2-1.5c0.3-0.5,0.8-0.9,1.4-1
			c0.6-0.1,1.1,0,1.6,0.2c0.5,0.3,0.8,0.7,0.9,1.3c0.1,0.5,0,1-0.2,1.6c-0.1,0.3-0.4,0.7-0.7,1.3l-1.1,1.9l2.9-0.6L188.3,328z"/>
		<path class="st9" d="M189.2,325.9l-0.2-0.7l2.2-0.5l0.2,0.7L189.2,325.9z"/>
		<path class="st9" d="M192.5,327.1l0.9-2c0,0-0.1,0-0.2,0c-0.1,0-0.2,0-0.3,0c-0.1,0-0.3-0.1-0.4-0.1c-0.3-0.2-0.4-0.4-0.5-0.8
			c-0.1-0.4,0-0.7,0.2-1c0.2-0.3,0.6-0.5,1.2-0.6l1.5-0.3l0.9,4.2l-0.7,0.2l-0.4-1.7l-0.4,0.1l-0.8,2L192.5,327.1z M194.5,324.2
			l-0.3-1.3l-0.7,0.1c-0.3,0.1-0.5,0.2-0.6,0.3c-0.1,0.2-0.2,0.3-0.1,0.6c0,0.2,0.2,0.4,0.4,0.4c0.1,0.1,0.4,0,0.7,0L194.5,324.2z"
			/>
		<path class="st9" d="M202.9,324.3c-0.3,0.5-0.8,0.8-1.5,1c-0.6,0.1-1.2,0-1.7-0.3c-0.5-0.3-0.8-0.8-1-1.4c-0.1-0.6,0-1.2,0.3-1.7
			c0.3-0.5,0.8-0.8,1.5-1c0.6-0.1,1.2,0,1.7,0.3c0.5,0.3,0.8,0.8,1,1.5C203.3,323.2,203.2,323.7,202.9,324.3z M201.7,321.6
			c-0.3-0.2-0.7-0.3-1.1-0.2c-0.4,0.1-0.7,0.3-1,0.6c-0.2,0.3-0.3,0.8-0.2,1.2c0.1,0.5,0.3,0.8,0.7,1c0.4,0.2,0.7,0.3,1.1,0.2
			c0.4-0.1,0.7-0.3,1-0.6c0.2-0.3,0.3-0.8,0.2-1.2C202.3,322.2,202.1,321.9,201.7,321.6z"/>
		<path class="st9" d="M207,323.9l-0.4-1.6c-0.4,0.1-0.7,0.3-1,0.3c-0.5,0.1-0.8,0.1-1.1-0.1c-0.3-0.2-0.5-0.5-0.6-1l-0.3-1.3
			l0.7-0.2l0.3,1.2c0.1,0.2,0.1,0.4,0.2,0.5c0.1,0.2,0.4,0.2,0.7,0.1c0.3-0.1,0.6-0.2,0.9-0.3l-0.4-1.9l0.7-0.2l0.9,4.2L207,323.9z"
			/>
		<path class="st9" d="M211.9,321.3l0.7,0.2c-0.1,0.3-0.2,0.6-0.4,0.8c-0.3,0.4-0.7,0.7-1.3,0.8c-0.6,0.1-1.1,0-1.6-0.2
			c-0.5-0.3-0.8-0.8-1-1.5c-0.1-0.6-0.1-1.2,0.2-1.7c0.3-0.5,0.7-0.8,1.3-1c0.7-0.2,1.3,0,1.8,0.4c0.4,0.3,0.6,0.8,0.7,1.5l-3.3,0.7
			c0.1,0.4,0.3,0.7,0.6,0.9c0.3,0.2,0.7,0.3,1,0.2c0.3-0.1,0.6-0.2,0.8-0.5C211.7,321.8,211.8,321.6,211.9,321.3z M209.1,320.8
			l2.5-0.5c-0.1-0.3-0.3-0.6-0.6-0.7c-0.3-0.1-0.6-0.2-0.9-0.1c-0.3,0.1-0.5,0.2-0.7,0.5C209.1,320.1,209,320.4,209.1,320.8z"/>
		<path class="st9" d="M214.5,321.6l0.6,3l-0.7,0.2l-1.4-6.6l0.7-0.2l0.1,0.6c0.3-0.5,0.7-0.9,1.3-1c0.6-0.1,1.2,0,1.6,0.3
			s0.8,0.8,0.9,1.4c0.1,0.6,0.1,1.2-0.2,1.7c-0.3,0.5-0.7,0.8-1.3,1C215.6,322.1,215,322,214.5,321.6z M215.9,321.4
			c0.4-0.1,0.7-0.3,0.9-0.7c0.2-0.4,0.2-0.7,0.1-1.2c-0.1-0.5-0.3-0.8-0.7-1.1c-0.3-0.2-0.7-0.3-1.1-0.2c-0.4,0.1-0.7,0.3-0.9,0.6
			c-0.2,0.3-0.3,0.8-0.2,1.2c0.1,0.4,0.3,0.8,0.6,1C215.1,321.4,215.5,321.5,215.9,321.4z"/>
		<path class="st9" d="M222.1,319.1l0.7,0.2c-0.1,0.3-0.2,0.6-0.4,0.8c-0.3,0.4-0.7,0.7-1.3,0.8c-0.6,0.1-1.1,0-1.6-0.2
			s-0.8-0.8-1-1.5c-0.1-0.6-0.1-1.2,0.2-1.7s0.7-0.8,1.3-1c0.7-0.2,1.3,0,1.8,0.4c0.4,0.3,0.6,0.8,0.7,1.5l-3.3,0.7
			c0.1,0.4,0.3,0.7,0.6,0.9c0.3,0.2,0.7,0.3,1,0.2c0.3-0.1,0.6-0.2,0.8-0.5C221.9,319.6,222,319.4,222.1,319.1z M219.2,318.5
			l2.5-0.5c-0.1-0.3-0.3-0.6-0.6-0.7c-0.3-0.2-0.6-0.2-0.9-0.1c-0.3,0.1-0.5,0.2-0.7,0.5C219.3,317.9,219.2,318.2,219.2,318.5z"/>
		<path class="st9" d="M223.5,315.9l3-0.6l0.8,3.5l0.6-0.1l0.4,1.8l-0.7,0.1l-0.2-1.1l-3.2,0.7l0.2,1.1l-0.7,0.1l-0.4-1.8
			c0.3-0.1,0.6-0.3,0.7-0.7c0.1-0.3,0-0.6-0.1-1.2L223.5,315.9z M226.5,318.9l-0.6-2.9l-1.5,0.3l0.3,1.6c0.1,0.6,0,1-0.2,1.4
			L226.5,318.9z"/>
		<path class="st9" d="M228.8,319.1l-0.9-4.2l0.7-0.2l0.4,1.6l0.7-0.2c0.6-0.1,1-0.1,1.4,0.1c0.3,0.2,0.4,0.4,0.5,0.8
			c0.1,0.4,0,0.7-0.2,1s-0.6,0.5-1.2,0.6L228.8,319.1z M229.4,318.3l0.7-0.1c0.3-0.1,0.5-0.1,0.6-0.3c0.2-0.2,0.2-0.4,0.2-0.6
			c-0.1-0.2-0.2-0.4-0.4-0.5c-0.1-0.1-0.4,0-0.7,0l-0.7,0.2L229.4,318.3z"/>
		<path class="st9" d="M183.8,334.3l0.2,0.9c-0.4-0.3-0.9-0.5-1.5-0.3c-0.4,0.1-0.7,0.3-1,0.7s-0.3,0.8-0.2,1.2
			c0.1,0.5,0.3,0.8,0.7,1s0.7,0.3,1.1,0.2c0.5-0.1,0.9-0.4,1.2-1l0.2,0.9c-0.3,0.4-0.7,0.6-1.2,0.7c-0.7,0.1-1.2,0.1-1.8-0.3
			c-0.5-0.3-0.8-0.8-1-1.4c-0.1-0.6,0-1.2,0.3-1.7c0.3-0.5,0.8-0.8,1.5-1C182.9,334.1,183.4,334.1,183.8,334.3z"/>
		<path class="st9" d="M187.8,333.8l-1.3,0.3l0.8,3.5l-0.7,0.2l-0.8-3.5l-1.3,0.3l-0.1-0.7l3.4-0.7L187.8,333.8z"/>
		<path class="st9" d="M189.9,336.4l0.6,3l-0.7,0.2l-1.4-6.6l0.7-0.2l0.1,0.6c0.3-0.5,0.7-0.9,1.3-1c0.6-0.1,1.2,0,1.6,0.3
			s0.8,0.8,0.9,1.4c0.1,0.6,0.1,1.2-0.2,1.7c-0.3,0.5-0.7,0.8-1.3,1C190.9,336.9,190.4,336.8,189.9,336.4z M191.3,336.2
			c0.4-0.1,0.7-0.3,0.9-0.7c0.2-0.4,0.2-0.7,0.1-1.2c-0.1-0.5-0.3-0.8-0.7-1.1c-0.3-0.2-0.7-0.3-1.1-0.2s-0.7,0.3-0.9,0.6
			c-0.2,0.3-0.3,0.8-0.2,1.2c0.1,0.4,0.3,0.8,0.6,1C190.5,336.2,190.9,336.3,191.3,336.2z"/>
		<path class="st9" d="M198.1,334.7c-0.3,0.5-0.8,0.8-1.5,1s-1.2,0-1.7-0.3c-0.5-0.3-0.8-0.8-1-1.4c-0.1-0.6,0-1.2,0.3-1.7
			c0.3-0.5,0.8-0.8,1.5-1c0.6-0.1,1.2,0,1.7,0.3c0.5,0.3,0.8,0.8,1,1.4C198.5,333.6,198.4,334.2,198.1,334.7z M197,332.1
			c-0.3-0.2-0.7-0.3-1.1-0.2c-0.4,0.1-0.7,0.3-1,0.6c-0.2,0.3-0.3,0.8-0.2,1.2c0.1,0.5,0.3,0.8,0.7,1c0.4,0.2,0.7,0.3,1.1,0.2
			c0.4-0.1,0.7-0.3,1-0.6c0.2-0.3,0.3-0.8,0.2-1.2C197.5,332.7,197.3,332.3,197,332.1z"/>
		<path class="st9" d="M199,330.6l0.7-0.2l0.6,2.8l2.2-3.7l1,4.5l-0.7,0.2l-0.6-2.8l-2.2,3.7L199,330.6z"/>
		<path class="st9" d="M206.9,329.6l-1.3,0.3l0.8,3.5l-0.7,0.2l-0.8-3.5l-1.3,0.3l-0.1-0.7l3.4-0.7L206.9,329.6z"/>
		<path class="st9" d="M211.3,330.9l0.7,0.2c-0.1,0.3-0.2,0.6-0.4,0.8c-0.3,0.4-0.7,0.7-1.3,0.8c-0.6,0.1-1.1,0-1.6-0.2
			c-0.5-0.3-0.8-0.8-1-1.5c-0.1-0.6-0.1-1.2,0.2-1.7c0.3-0.5,0.7-0.8,1.3-1c0.7-0.2,1.3,0,1.8,0.4c0.4,0.3,0.6,0.8,0.7,1.5l-3.3,0.7
			c0.1,0.4,0.3,0.7,0.6,0.9c0.3,0.2,0.7,0.3,1,0.2c0.3-0.1,0.6-0.2,0.8-0.5C211.1,331.4,211.2,331.1,211.3,330.9z M208.4,330.3
			l2.5-0.5c-0.1-0.3-0.3-0.6-0.6-0.7c-0.3-0.1-0.6-0.2-0.9-0.1c-0.3,0.1-0.5,0.2-0.7,0.5C208.5,329.7,208.4,330,208.4,330.3z"/>
		<path class="st9" d="M215.6,327l0.9,4.2l-0.7,0.2l-0.8-3.5l-1.5,0.3l0.4,1.9c0.1,0.5,0.1,1-0.1,1.3c-0.2,0.4-0.5,0.6-0.9,0.7
			c-0.1,0-0.1,0-0.2,0l-0.1-0.7c0.1,0,0.1,0,0.2,0c0.2-0.1,0.4-0.2,0.5-0.4c0.1-0.2,0.1-0.4,0-0.7l-0.6-2.6L215.6,327z"/>
		<path class="st9" d="M217.9,330.9l-0.9-4.2l0.7-0.2l0.4,1.6l0.7-0.2c0.6-0.1,1-0.1,1.4,0.1c0.3,0.2,0.4,0.4,0.5,0.8
			c0.1,0.4,0,0.7-0.2,1c-0.2,0.3-0.6,0.5-1.2,0.6L217.9,330.9z M218.5,330.1l0.7-0.1c0.3-0.1,0.5-0.1,0.6-0.3
			c0.2-0.2,0.2-0.4,0.2-0.6c-0.1-0.2-0.2-0.4-0.4-0.5c-0.1-0.1-0.4,0-0.7,0l-0.7,0.2L218.5,330.1z"/>
		<path class="st9" d="M224.4,325.4l0.2,0.9c-0.4-0.3-0.9-0.5-1.5-0.3c-0.4,0.1-0.7,0.3-1,0.7s-0.3,0.8-0.2,1.2
			c0.1,0.5,0.3,0.8,0.7,1c0.4,0.2,0.7,0.3,1.1,0.2c0.5-0.1,0.9-0.4,1.2-1l0.2,0.9c-0.3,0.4-0.7,0.6-1.2,0.7
			c-0.7,0.1-1.2,0.1-1.7-0.3c-0.5-0.3-0.8-0.8-1-1.4c-0.1-0.6,0-1.2,0.3-1.7c0.3-0.5,0.8-0.8,1.5-1
			C223.4,325.2,223.9,325.2,224.4,325.4z"/>
		<path class="st9" d="M228.3,324.9l-1.3,0.3l0.8,3.5l-0.7,0.2l-0.8-3.5l-1.3,0.3l-0.1-0.7l3.4-0.7L228.3,324.9z"/>
		<path class="st9" d="M229,324.1l1.6-0.3c0.4-0.1,0.7-0.1,0.9,0.1c0.3,0.1,0.5,0.4,0.5,0.7c0.1,0.4,0,0.7-0.3,0.9
			c0.2,0,0.4,0.1,0.6,0.2c0.3,0.2,0.4,0.4,0.5,0.7c0.1,0.4,0,0.8-0.2,1c-0.2,0.2-0.5,0.4-0.9,0.5l-1.8,0.4L229,324.1z M230.1,325.7
			l0.8-0.2c0.2,0,0.3-0.1,0.4-0.2c0.1-0.1,0.1-0.3,0.1-0.5c0-0.2-0.1-0.3-0.3-0.4c-0.1,0-0.3,0-0.6,0l-0.6,0.1L230.1,325.7z
			 M230.5,327.5l0.9-0.2c0.3-0.1,0.5-0.2,0.6-0.3c0.1-0.2,0.2-0.3,0.1-0.5c0-0.2-0.1-0.3-0.3-0.4c-0.1-0.1-0.4-0.1-0.7,0l-0.9,0.2
			L230.5,327.5z"/>
		<path class="st9" d="M236.7,323.1l-0.1-0.6l0.7-0.2l0.9,4.2l-0.7,0.2l-0.1-0.6c-0.3,0.6-0.7,0.9-1.3,1c-0.6,0.1-1.1,0-1.6-0.3
			c-0.5-0.3-0.8-0.8-1-1.5c-0.2-0.7-0.1-1.3,0.2-1.7c0.3-0.5,0.8-0.8,1.3-0.9C235.7,322.5,236.2,322.7,236.7,323.1z M235.3,323.3
			c-0.4,0.1-0.7,0.3-0.9,0.6c-0.2,0.3-0.3,0.7-0.2,1.2c0.1,0.5,0.3,0.8,0.6,1.1c0.3,0.2,0.7,0.3,1.1,0.2s0.7-0.3,0.9-0.7
			s0.2-0.8,0.1-1.2c-0.1-0.5-0.3-0.9-0.7-1.1C236,323.3,235.7,323.2,235.3,323.3z"/>
	</g>
	<g>
		<path class="st7" d="M605,29.1V32c-0.8-0.8-1.8-1.5-2.8-2c-1.2-0.6-2.4-0.8-3.6-0.8c-2.4,0-4.5,0.9-6.1,2.6
			c-1.6,1.7-2.4,3.8-2.4,6.3c0,2.7,0.9,4.8,2.6,6.3c1.8,1.5,3.7,2.3,5.9,2.3c1.4,0,2.7-0.3,3.9-1c0.9-0.4,1.7-1,2.4-1.8v2.9
			c-1.9,1.4-4.1,2.1-6.4,2.1c-3.1,0-5.7-1-7.8-3.1c-2.1-2.1-3.1-4.7-3.1-7.7c0-3.2,1.1-5.8,3.2-7.9c2.1-2.1,4.7-3.1,7.9-3.1
			C601.1,27,603.2,27.7,605,29.1z"/>
		<path class="st7" d="M607.1,48.5l6.3-10.9l-5.7-10.2h2.7l4.4,8l4.5-8h2.7L616,37.6l6.1,10.9h-2.7l-4.9-8.7l-4.9,8.7H607.1z"/>
		<path class="st7" d="M636.3,27.3v2.2h-8.6v6.3h8.4v2.2h-8.4v8.2h8.6v2.2h-11V27.3H636.3z"/>
		<path class="st7" d="M642.3,48.5h-2.4l3.5-22.3l8.1,17.9l8.3-17.9l3.3,22.4h-2.4l-2-14.7l-7.2,15.6l-7.1-15.6L642.3,48.5z"/>
		<path class="st7" d="M682.2,48.5l-2.5-6h-9l-2.5,6h-2.6l9.7-22.2l9.5,22.2H682.2z M671.6,40.3h7.2l-3.6-8.5L671.6,40.3z"/>
		<path class="st7" d="M441.9,60.7h3.8c2.4,0,4.2,0.5,5.3,1.5c1.3,1.1,1.9,2.6,1.9,4.5c0,1.7-0.6,3.1-1.7,4.2
			c-1.1,1.2-2.8,1.7-5,1.7h-2.1v9.2h-2.3V60.7z M444.3,62.9v7.5h1.9c1.4,0,2.5-0.3,3.3-1c0.8-0.7,1.2-1.6,1.2-2.8
			c0-2.5-1.6-3.7-4.7-3.7H444.3z"/>
		<path class="st7" d="M469,81.8l-2.5-6h-9l-2.5,6h-2.6l9.7-22.2l9.5,22.2H469z M458.5,73.6h7.2l-3.6-8.5L458.5,73.6z"/>
		<path class="st7" d="M490.8,62.4v2.9c-0.8-0.8-1.8-1.5-2.8-2c-1.2-0.6-2.4-0.8-3.6-0.8c-2.4,0-4.5,0.9-6.1,2.6
			c-1.6,1.7-2.4,3.8-2.4,6.3c0,2.7,0.9,4.8,2.6,6.3c1.8,1.5,3.7,2.3,5.9,2.3c1.4,0,2.7-0.3,3.9-1c0.9-0.4,1.7-1,2.4-1.8v2.9
			c-1.9,1.4-4.1,2.1-6.4,2.1c-3.1,0-5.7-1-7.8-3.1c-2.1-2.1-3.1-4.7-3.1-7.7c0-3.2,1.1-5.8,3.2-7.9c2.1-2.1,4.7-3.1,7.9-3.1
			C486.9,60.3,489,61,490.8,62.4z"/>
		<path class="st7" d="M495.1,60.7h15.6v21.2h-2.3V62.9h-10.9v18.9h-2.3V60.7z"/>
		<path class="st7" d="M533.8,79.1c-2.1,2.1-4.7,3.1-7.8,3.1c-3.1,0-5.7-1-7.8-3.1c-2.1-2.1-3.2-4.7-3.2-7.8c0-3.1,1.1-5.7,3.2-7.8
			c2.1-2.1,4.7-3.1,7.8-3.1c3.1,0,5.7,1,7.8,3.1c2.1,2.1,3.2,4.7,3.2,7.8C537,74.4,536,77,533.8,79.1z M532.1,65.1
			c-1.7-1.7-3.7-2.5-6.1-2.5c-2.4,0-4.4,0.8-6.1,2.5c-1.7,1.7-2.5,3.8-2.5,6.2c0,2.4,0.8,4.5,2.5,6.2c1.7,1.7,3.7,2.5,6.1,2.5
			c2.4,0,4.4-0.8,6.1-2.5c1.7-1.7,2.5-3.8,2.5-6.2C534.6,68.8,533.8,66.8,532.1,65.1z"/>
		<path class="st7" d="M543.5,60.7h12.9v21.2H554V62.9h-8.2v11.4c0,1,0,1.7,0,2.2c0,0.5-0.2,1.2-0.5,2.1s-0.8,1.6-1.4,2.2
			c-1,0.8-2.2,1.3-3.6,1.3c-0.3,0-0.8-0.1-1.3-0.2v-2.2c0.4,0.1,0.8,0.2,1.2,0.2c0.8,0,1.5-0.3,2.1-0.8c0.4-0.4,0.7-0.9,0.9-1.6
			s0.3-1.3,0.3-1.8c0-0.5,0-1.2,0-2.3V60.7z"/>
		<path class="st7" d="M579.5,79.1c-2.1,2.1-4.7,3.1-7.8,3.1c-3.1,0-5.7-1-7.8-3.1c-2.1-2.1-3.2-4.7-3.2-7.8c0-3.1,1.1-5.7,3.2-7.8
			c2.1-2.1,4.7-3.1,7.8-3.1c3.1,0,5.7,1,7.8,3.1c2.1,2.1,3.2,4.7,3.2,7.8C582.7,74.4,581.7,77,579.5,79.1z M577.8,65.1
			c-1.7-1.7-3.7-2.5-6.1-2.5c-2.4,0-4.4,0.8-6.1,2.5c-1.7,1.7-2.5,3.8-2.5,6.2c0,2.4,0.8,4.5,2.5,6.2c1.7,1.7,3.7,2.5,6.1,2.5
			c2.4,0,4.4-0.8,6.1-2.5c1.7-1.7,2.5-3.8,2.5-6.2C580.3,68.8,579.5,66.8,577.8,65.1z"/>
		<path class="st7" d="M596,60.7h2.3v9.1l8.1-9.1h2.9l-8.9,9.9l9.1,11.3h-3l-7.7-9.7l-0.5,0.6v9.1H596v-9.1l-0.5-0.6l-7.7,9.7h-3
			l9.1-11.3l-8.9-9.9h2.9l8.1,9.1V60.7z"/>
		<path class="st7" d="M623.7,60.7v2.2h-8.6v6.3h8.4v2.2h-8.4v8.2h8.6v2.2h-11V60.7H623.7z"/>
		<path class="st7" d="M630.4,60.7v8.6h10.9v-8.6h2.3v21.2h-2.3V71.5h-10.9v10.3H628V60.7H630.4z"/>
		<path class="st7" d="M663.8,81.8V65.7l-14.7,17.1V60.7h2.3v16.2l14.7-17.1v22.1H663.8z"/>
		<path class="st7" d="M669.8,81.8l6.2-9.4c-1.4-0.1-2.6-0.6-3.6-1.3c-1.2-1-1.8-2.4-1.8-4.3c0-1.7,0.5-3.1,1.5-4.2
			c1.1-1.3,2.9-1.9,5.3-1.9h5v21.2H680v-9.3h-1.3l-6,9.3H669.8z M680,62.9h-2.3c-1.7,0-2.9,0.4-3.6,1.1c-0.7,0.7-1,1.6-1,2.7
			c0,1.2,0.4,2.2,1.2,2.9c0.8,0.6,1.8,0.9,3.2,0.9h2.5V62.9z"/>
		<path class="st7" d="M530.9,94v9.1l9-9.1h3.2l-9.9,9.9l10.2,11.3h-3.2l-8.7-9.7l-0.6,0.6v9.1h-2.3V94H530.9z"/>
		<path class="st7" d="M564.3,112.4c-2.1,2.1-4.7,3.1-7.8,3.1c-3.1,0-5.7-1-7.8-3.1c-2.1-2.1-3.2-4.7-3.2-7.8c0-3.1,1.1-5.7,3.2-7.8
			c2.1-2.1,4.7-3.1,7.8-3.1c3.1,0,5.7,1,7.8,3.1c2.1,2.1,3.2,4.7,3.2,7.8C567.5,107.7,566.4,110.3,564.3,112.4z M562.5,98.4
			c-1.7-1.7-3.7-2.5-6.1-2.5c-2.4,0-4.4,0.8-6.1,2.5c-1.7,1.7-2.5,3.8-2.5,6.2c0,2.4,0.8,4.5,2.5,6.2c1.7,1.7,3.7,2.5,6.1,2.5
			c2.4,0,4.4-0.8,6.1-2.5c1.7-1.7,2.5-3.8,2.5-6.2C565,102.1,564.2,100.1,562.5,98.4z"/>
		<path class="st7" d="M571.8,94h3.8c2.4,0,4.2,0.5,5.3,1.5c1.3,1.1,1.9,2.6,1.9,4.5c0,1.7-0.6,3.1-1.7,4.2c-1.1,1.2-2.8,1.7-5,1.7
			h-2.1v9.2h-2.3V94z M574.1,96.2v7.5h1.9c1.4,0,2.5-0.3,3.3-1c0.8-0.7,1.2-1.6,1.2-2.8c0-2.5-1.6-3.7-4.7-3.7H574.1z"/>
		<path class="st7" d="M586.2,94h15.6v21.2h-2.3V96.2h-10.9v18.9h-2.3V94z"/>
		<path class="st7" d="M604.8,94h2.9l6.6,12.5l5.5-12.5h2.5l-9.6,21.2h-2.5l2.7-5.9L604.8,94z"/>
		<path class="st7" d="M641.4,95.7v2.9c-0.8-0.8-1.8-1.5-2.8-2c-1.2-0.6-2.4-0.8-3.6-0.8c-2.4,0-4.5,0.9-6.1,2.6
			c-1.6,1.7-2.4,3.8-2.4,6.3c0,2.7,0.9,4.8,2.6,6.3c1.8,1.5,3.7,2.3,5.9,2.3c1.4,0,2.7-0.3,3.9-1c0.9-0.4,1.7-1,2.4-1.8v2.9
			c-1.9,1.4-4.1,2.1-6.4,2.1c-3.1,0-5.7-1-7.8-3.1c-2.1-2.1-3.1-4.7-3.1-7.7c0-3.2,1.1-5.8,3.2-7.9c2.1-2.1,4.7-3.1,7.9-3.1
			C637.5,93.6,639.6,94.3,641.4,95.7z"/>
		<path class="st7" d="M663.4,112.4c-2.1,2.1-4.7,3.1-7.8,3.1c-3.1,0-5.7-1-7.8-3.1c-2.1-2.1-3.2-4.7-3.2-7.8c0-3.1,1.1-5.7,3.2-7.8
			c2.1-2.1,4.7-3.1,7.8-3.1c3.1,0,5.7,1,7.8,3.1c2.1,2.1,3.2,4.7,3.2,7.8C666.6,107.7,665.6,110.3,663.4,112.4z M661.7,98.4
			c-1.7-1.7-3.7-2.5-6.1-2.5c-2.4,0-4.4,0.8-6.1,2.5c-1.7,1.7-2.5,3.8-2.5,6.2c0,2.4,0.8,4.5,2.5,6.2c1.7,1.7,3.7,2.5,6.1,2.5
			c2.4,0,4.4-0.8,6.1-2.5c1.7-1.7,2.5-3.8,2.5-6.2C664.2,102.1,663.4,100.1,661.7,98.4z"/>
		<path class="st7" d="M670.9,94h3.8c2.1,0,3.7,0.4,4.9,1.3c1.3,1,1.9,2.4,1.9,4.4c0,1.8-0.7,3.2-2.1,4.2c1.4,0.3,2.4,1,3,2
			s1,2.1,1,3.3c0,1-0.2,1.8-0.6,2.6s-0.9,1.4-1.5,1.9c-1.2,0.9-2.9,1.4-5.1,1.4h-5.3V94z M673.3,96.2v7.1h1.8c0.3,0,0.6,0,0.9,0
			c0.3,0,0.7-0.1,1.1-0.3c0.4-0.1,0.8-0.3,1.1-0.6c0.3-0.2,0.6-0.6,0.8-1c0.2-0.5,0.3-1,0.3-1.6c0-0.7-0.1-1.2-0.4-1.7
			c-0.3-0.5-0.5-0.8-0.9-1.1c-0.3-0.2-0.7-0.4-1.1-0.5s-0.8-0.2-1-0.2c-0.2,0-0.5,0-0.7,0H673.3z M673.3,105.4v7.6h2.7
			c1.7,0,3-0.3,3.7-0.9c0.9-0.7,1.4-1.7,1.4-2.9c0-1.4-0.6-2.5-1.8-3.1c-0.8-0.4-2-0.6-3.6-0.6H673.3z"/>
	</g>
</g>
</svg>
