<?xml version="1.0" encoding="utf-8"?>
<!-- Generator: Adobe Illustrator 21.0.0, SVG Export Plug-In . SVG Version: 6.00 Build 0)  -->
<svg version="1.1" id="Слой_1" xmlns="http://www.w3.org/2000/svg" xmlns:xlink="http://www.w3.org/1999/xlink" x="0px" y="0px"
	 viewBox="0 0 192 192" style="enable-background:new 0 0 192 192;" xml:space="preserve">
<style type="text/css">
	.st0{fill:#FFFFFF;}
	.st1{clip-path:url(#SVGID_2_);fill:none;stroke:#1D1D1B;stroke-width:2;stroke-miterlimit:10;}
	.st2{clip-path:url(#SVGID_2_);fill:#236448;}
	.st3{clip-path:url(#SVGID_2_);fill:#1D1D1B;}
</style>
<rect x="1" y="1" class="st0" width="190" height="190"/>
<g>
	<defs>
		<rect id="SVGID_1_" width="192" height="192"/>
	</defs>
	<clipPath id="SVGID_2_">
		<use xlink:href="#SVGID_1_"  style="overflow:visible;"/>
	</clipPath>
	<rect x="1" y="1" class="st1" width="190" height="190"/>
	<path class="st2" d="M120.6,31.3l-0.1-1l-1-0.1c-1.2-0.2-28.3-4.1-38.3,5.9c-5,5-7.2,10.3-6.6,15.8c0.5,4.8,3.2,9.7,7.8,14.6l-6,6
		l1.9,1.9l6-6c5,4.8,9.7,7.4,14.4,8.1c0.8,0.1,1.5,0.2,2.3,0.2c4.7,0,9.2-2.1,13.5-6.4C124.4,60.2,120.8,32.4,120.6,31.3
		 M116.4,32.5L101,47.8c-1.7-6.3-3.8-14.4-3.9-15.3l-0.6,0c3.2-0.5,6.6-0.6,9.7-0.6C110.3,31.9,114,32.2,116.4,32.5 M92.7,59.9
		l7.9-7.9l16.9,5.2l0.2-0.5c-0.8,3.9-2,7.6-4,10.2L92.7,59.9z M98.9,50l-8,8l-5.9-21.5c2.6-1.7,5.9-2.9,9.5-3.5
		C94.7,34.3,95.7,38.2,98.9,50 M77.3,51.6c-0.5-4.6,1.3-9,5.4-13.2l6,21.8l-4.4,4.4C80.1,60.1,77.7,55.7,77.3,51.6 M99.1,73.8
		c-4-0.6-8.3-3.1-12.9-7.4l4.4-4.4l21.1,7.1C107.6,72.9,103.4,74.4,99.1,73.8 M118,54.6l-15.2-4.7l15.5-15.5
		C118.6,38.6,119.1,46.9,118,54.6"/>
	<polygon class="st3" points="40.6,122.3 40.6,97.3 29.8,97.3 29.8,94.1 55.8,94.1 55.8,97.3 45,97.3 45,122.3 	"/>
	<polygon class="st3" points="61.1,122.3 61.1,94.1 80.2,94.1 80.2,97.3 65.5,97.3 65.5,105.9 78,105.9 78,109.2 65.5,109.2 
		65.5,119.1 81.2,119.1 81.2,122.3 	"/>
	<path class="st3" d="M87.6,122.3V94.1h7.9c3.3,0,5.6,0.3,6.8,0.8c2.7,1.1,4.1,3.1,4.1,6c0,2-0.5,3.6-1.4,4.9
		c-0.9,1.3-2.5,2.5-4.8,3.7l9.8,12.9h-5.2l-8.9-11.8h-3.9v11.8H87.6z M91.9,107.3h2.3c2.3,0,4.2-0.5,5.5-1.5c1.4-1,2-2.4,2-4.2
		c0-1.6-0.5-2.8-1.5-3.4c-1-0.6-2.9-0.9-5.7-0.9h-2.7V107.3z"/>
	<path class="st3" d="M114.8,122.3V94.1h7.9c3.3,0,5.6,0.3,6.8,0.8c2.7,1.1,4.1,3.1,4.1,6c0,2-0.5,3.6-1.4,4.9
		c-0.9,1.3-2.5,2.5-4.8,3.7l9.7,12.9h-5.2l-8.9-11.8h-3.9v11.8H114.8z M119.1,107.3h2.3c2.3,0,4.2-0.5,5.5-1.5c1.4-1,2-2.4,2-4.2
		c0-1.6-0.5-2.8-1.5-3.4c-1-0.6-2.9-0.9-5.7-0.9h-2.7V107.3z"/>
	<path class="st3" d="M138.1,122.3l11.1-28.2h4.3l11.1,28.2h-4.6l-2.7-7.1h-12.9l-2.7,7.1H138.1z M145.9,112h10.3L151,98.5
		L145.9,112z"/>
	<path class="st3" d="M58.6,135.7v7.7h1.3v3.2h-1.1v-2.2h-6.6v2.2H51v-3.2c1.9-0.1,2-2,2-3.5v-4.2H58.6z M57.4,136.6h-3.2v4.1
		c0,1.1-0.3,2-1.1,2.6h4.3V136.6z"/>
	<path class="st3" d="M61.2,140c0-2.7,1.9-4.7,4.7-4.7c2.8,0,4.7,2,4.7,4.7s-1.9,4.7-4.7,4.7C63.1,144.7,61.2,142.7,61.2,140
		 M69.3,140c0-2.3-1.6-3.7-3.4-3.7c-1.9,0-3.4,1.5-3.4,3.7c0,2.3,1.6,3.7,3.4,3.7C67.8,143.7,69.3,142.2,69.3,140"/>
	<polygon class="st3" points="74,135 77.5,142.6 81,135 83.1,144.3 81.9,144.3 80.7,138.2 77.5,144.9 74.4,138.2 73.1,144.3 
		71.9,144.3 	"/>
	<polygon class="st3" points="90.8,135.7 90.8,141.9 96.7,135.2 96.7,144.3 95.5,144.3 95.5,138.1 89.6,144.9 89.6,135.7 	"/>
	<polygon class="st3" points="111.3,135.7 111.3,144.3 110.1,144.3 110.1,136.6 105.5,136.6 105.5,144.3 104.3,144.3 104.3,135.7 	
		"/>
	<path class="st3" d="M121.4,135.7h1.1v8.7h-1.1v-1.5c-0.7,1.3-2,1.8-3.2,1.8c-2.8,0-4.5-2.1-4.5-4.7c0-2.7,1.8-4.7,4.5-4.7
		c1,0,2.3,0.3,3.2,1.9V135.7z M121.4,140c0-2-1.2-3.7-3.1-3.7c-1.9,0-3.3,1.6-3.3,3.7c0,2,1.2,3.7,3.2,3.7
		C120,143.7,121.4,142.3,121.4,140"/>
	<path class="st3" d="M126.6,135.7v1.5c0.5-1,1.5-1.9,3.2-1.9c2.7,0,4.5,1.9,4.5,4.7c0,2.6-1.7,4.7-4.4,4.7c-1.8,0-2.8-1.1-3.2-1.7
		v5.5h-1.2v-12.8H126.6z M133,140c0-1.7-0.9-3.7-3.3-3.7c-1.9,0-3.1,1.7-3.1,3.7c0,2.4,1.6,3.7,3.3,3.7
		C131.8,143.7,133,142.1,133,140"/>
	<polygon class="st3" points="136.6,135.7 137.8,135.7 137.8,139.5 141.7,135.7 143.1,135.7 139,139.7 143.5,144.3 141.9,144.3 
		137.8,140 137.8,144.3 136.6,144.3 	"/>
</g>
</svg>
