<?xml version="1.0" encoding="utf-8"?>
<!-- Generator: Adobe Illustrator 21.0.0, SVG Export Plug-In . SVG Version: 6.00 Build 0)  -->
<svg version="1.1" id="Слой_1" xmlns="http://www.w3.org/2000/svg" xmlns:xlink="http://www.w3.org/1999/xlink" x="0px" y="0px"
	 viewBox="0 0 36.5 36.5" style="enable-background:new 0 0 36.5 36.5;" xml:space="preserve">
<style type="text/css">
	.st0{clip-path:url(#SVGID_2_);fill:none;stroke:#303030;stroke-miterlimit:10;}
	.st1{clip-path:url(#SVGID_2_);fill:none;stroke:#303030;stroke-linejoin:round;stroke-miterlimit:10;}
</style>
<g>
	<defs>
		<rect id="SVGID_1_" width="36.5" height="36.5"/>
	</defs>
	<clipPath id="SVGID_2_">
		<use xlink:href="#SVGID_1_"  style="overflow:visible;"/>
	</clipPath>
	<circle class="st0" cx="18.3" cy="18.3" r="17.8"/>
	<path class="st1" d="M24,23.9c3.2-3.2,4.3-7.1,3.1-7.3c-1.1-0.2-2.8-1.2-2.8-1.2l3.9-3.9c0,0,5.9,5.1-2.5,13.8"/>
	<path class="st1" d="M24,23.9c-3.2,3.2-7.1,4.3-7.3,3.1c-0.2-1.1-1.2-2.8-1.2-2.8l-3.9,3.9c0,0,5,6,14.1-2.8"/>
	<path class="st0" d="M9.6,22.2c0,0-4.3-6.4,2-12.4C17,4.7,23.5,8.7,23.5,8.7"/>
	<polyline class="st0" points="6.3,20.7 9.8,22.4 10.6,18.4 	"/>
</g>
</svg>
